{
	"patcher" : 	{
		"fileversion" : 1,
		"appversion" : 		{
			"major" : 8,
			"minor" : 6,
			"revision" : 4,
			"architecture" : "x64",
			"modernui" : 1
		}
,
		"classnamespace" : "box",
		"rect" : [ 34.0, 87.0, 1318.0, 778.0 ],
		"bglocked" : 1,
		"openinpresentation" : 0,
		"default_fontsize" : 12.0,
		"default_fontface" : 0,
		"default_fontname" : "Arial",
		"gridonopen" : 1,
		"gridsize" : [ 15.0, 15.0 ],
		"gridsnaponopen" : 1,
		"objectsnaponopen" : 1,
		"statusbarvisible" : 2,
		"toolbarvisible" : 1,
		"lefttoolbarpinned" : 0,
		"toptoolbarpinned" : 0,
		"righttoolbarpinned" : 0,
		"bottomtoolbarpinned" : 0,
		"toolbars_unpinned_last_save" : 0,
		"tallnewobj" : 0,
		"boxanimatetime" : 200,
		"enablehscroll" : 1,
		"enablevscroll" : 1,
		"devicewidth" : 0.0,
		"description" : "",
		"digest" : "",
		"tags" : "",
		"style" : "",
		"subpatcher_template" : "",
		"assistshowspatchername" : 0,
		"boxes" : [ 			{
				"box" : 				{
					"fontname" : "Didot",
					"fontsize" : 24.0,
					"id" : "obj-114",
					"maxclass" : "comment",
					"numinlets" : 1,
					"numoutlets" : 0,
					"patching_rect" : [ 506.0, 106.0, 72.0, 36.0 ],
					"text" : "Harp",
					"textcolor" : [ 1.0, 1.0, 1.0, 1.0 ]
				}

			}
, 			{
				"box" : 				{
					"id" : "obj-103",
					"maxclass" : "message",
					"numinlets" : 2,
					"numoutlets" : 1,
					"outlettype" : [ "" ],
					"patching_rect" : [ 661.5, 171.0, 31.0, 22.0 ],
					"text" : "stop"
				}

			}
, 			{
				"box" : 				{
					"id" : "obj-98",
					"maxclass" : "message",
					"numinlets" : 2,
					"numoutlets" : 1,
					"outlettype" : [ "" ],
					"patching_rect" : [ 616.0, 171.0, 32.0, 22.0 ],
					"text" : "start"
				}

			}
, 			{
				"box" : 				{
					"id" : "obj-39",
					"lastchannelcount" : 0,
					"maxclass" : "live.gain~",
					"numinlets" : 2,
					"numoutlets" : 5,
					"orientation" : 1,
					"outlettype" : [ "signal", "signal", "", "float", "list" ],
					"parameter_enable" : 1,
					"patching_rect" : [ 616.0, 251.0, 136.0, 47.0 ],
					"saved_attribute_attributes" : 					{
						"valueof" : 						{
							"parameter_longname" : "live.gain~[6]",
							"parameter_mmax" : 6.0,
							"parameter_mmin" : -70.0,
							"parameter_modmode" : 3,
							"parameter_shortname" : "live.gain~[6]",
							"parameter_type" : 0,
							"parameter_unitstyle" : 4
						}

					}
,
					"varname" : "live.gain~[6]"
				}

			}
, 			{
				"box" : 				{
					"id" : "obj-25",
					"maxclass" : "newobj",
					"numinlets" : 1,
					"numoutlets" : 3,
					"outlettype" : [ "signal", "signal", "bang" ],
					"patching_rect" : [ 616.0, 207.0, 122.0, 22.0 ],
					"text" : "play~ night_sounds 2"
				}

			}
, 			{
				"box" : 				{
					"id" : "obj-8",
					"maxclass" : "newobj",
					"numinlets" : 2,
					"numoutlets" : 1,
					"outlettype" : [ "int" ],
					"patching_rect" : [ 907.0, 592.0, 29.5, 22.0 ],
					"text" : "* -1"
				}

			}
, 			{
				"box" : 				{
					"id" : "obj-85",
					"maxclass" : "comment",
					"numinlets" : 1,
					"numoutlets" : 0,
					"patching_rect" : [ 781.0, 44.0, 34.0, 20.0 ],
					"text" : "amp",
					"textcolor" : [ 1.0, 1.0, 1.0, 1.0 ]
				}

			}
, 			{
				"box" : 				{
					"id" : "obj-86",
					"maxclass" : "comment",
					"numinlets" : 1,
					"numoutlets" : 0,
					"patching_rect" : [ 781.0, 19.0, 34.0, 20.0 ],
					"text" : "freq",
					"textcolor" : [ 1.0, 1.0, 1.0, 1.0 ]
				}

			}
, 			{
				"box" : 				{
					"format" : 6,
					"id" : "obj-88",
					"maxclass" : "flonum",
					"numinlets" : 1,
					"numoutlets" : 2,
					"outlettype" : [ "", "bang" ],
					"parameter_enable" : 0,
					"patching_rect" : [ 729.0, 43.0, 50.0, 22.0 ]
				}

			}
, 			{
				"box" : 				{
					"format" : 6,
					"id" : "obj-89",
					"maxclass" : "flonum",
					"numinlets" : 1,
					"numoutlets" : 2,
					"outlettype" : [ "", "bang" ],
					"parameter_enable" : 0,
					"patching_rect" : [ 729.0, 15.0, 50.0, 22.0 ]
				}

			}
, 			{
				"box" : 				{
					"id" : "obj-81",
					"maxclass" : "comment",
					"numinlets" : 1,
					"numoutlets" : 0,
					"patching_rect" : [ 781.0, 113.0, 34.0, 20.0 ],
					"text" : "amp",
					"textcolor" : [ 1.0, 1.0, 1.0, 1.0 ]
				}

			}
, 			{
				"box" : 				{
					"id" : "obj-82",
					"maxclass" : "comment",
					"numinlets" : 1,
					"numoutlets" : 0,
					"patching_rect" : [ 781.0, 88.0, 34.0, 20.0 ],
					"text" : "freq",
					"textcolor" : [ 1.0, 1.0, 1.0, 1.0 ]
				}

			}
, 			{
				"box" : 				{
					"format" : 6,
					"id" : "obj-83",
					"maxclass" : "flonum",
					"numinlets" : 1,
					"numoutlets" : 2,
					"outlettype" : [ "", "bang" ],
					"parameter_enable" : 0,
					"patching_rect" : [ 729.0, 112.0, 50.0, 22.0 ]
				}

			}
, 			{
				"box" : 				{
					"format" : 6,
					"id" : "obj-84",
					"maxclass" : "flonum",
					"numinlets" : 1,
					"numoutlets" : 2,
					"outlettype" : [ "", "bang" ],
					"parameter_enable" : 0,
					"patching_rect" : [ 729.0, 84.0, 50.0, 22.0 ]
				}

			}
, 			{
				"box" : 				{
					"id" : "obj-77",
					"maxclass" : "comment",
					"numinlets" : 1,
					"numoutlets" : 0,
					"patching_rect" : [ 678.0, 113.0, 34.0, 20.0 ],
					"text" : "amp",
					"textcolor" : [ 1.0, 1.0, 1.0, 1.0 ]
				}

			}
, 			{
				"box" : 				{
					"id" : "obj-78",
					"maxclass" : "comment",
					"numinlets" : 1,
					"numoutlets" : 0,
					"patching_rect" : [ 678.0, 88.0, 34.0, 20.0 ],
					"text" : "freq",
					"textcolor" : [ 1.0, 1.0, 1.0, 1.0 ]
				}

			}
, 			{
				"box" : 				{
					"format" : 6,
					"id" : "obj-79",
					"maxclass" : "flonum",
					"numinlets" : 1,
					"numoutlets" : 2,
					"outlettype" : [ "", "bang" ],
					"parameter_enable" : 0,
					"patching_rect" : [ 626.0, 112.0, 50.0, 22.0 ]
				}

			}
, 			{
				"box" : 				{
					"format" : 6,
					"id" : "obj-80",
					"maxclass" : "flonum",
					"numinlets" : 1,
					"numoutlets" : 2,
					"outlettype" : [ "", "bang" ],
					"parameter_enable" : 0,
					"patching_rect" : [ 626.0, 84.0, 50.0, 22.0 ]
				}

			}
, 			{
				"box" : 				{
					"id" : "obj-73",
					"maxclass" : "comment",
					"numinlets" : 1,
					"numoutlets" : 0,
					"patching_rect" : [ 678.0, 44.0, 34.0, 20.0 ],
					"text" : "amp",
					"textcolor" : [ 1.0, 1.0, 1.0, 1.0 ]
				}

			}
, 			{
				"box" : 				{
					"id" : "obj-74",
					"maxclass" : "comment",
					"numinlets" : 1,
					"numoutlets" : 0,
					"patching_rect" : [ 678.0, 19.0, 34.0, 20.0 ],
					"text" : "freq",
					"textcolor" : [ 1.0, 1.0, 1.0, 1.0 ]
				}

			}
, 			{
				"box" : 				{
					"format" : 6,
					"id" : "obj-75",
					"maxclass" : "flonum",
					"numinlets" : 1,
					"numoutlets" : 2,
					"outlettype" : [ "", "bang" ],
					"parameter_enable" : 0,
					"patching_rect" : [ 626.0, 43.0, 50.0, 22.0 ]
				}

			}
, 			{
				"box" : 				{
					"format" : 6,
					"id" : "obj-76",
					"maxclass" : "flonum",
					"numinlets" : 1,
					"numoutlets" : 2,
					"outlettype" : [ "", "bang" ],
					"parameter_enable" : 0,
					"patching_rect" : [ 626.0, 15.0, 50.0, 22.0 ]
				}

			}
, 			{
				"box" : 				{
					"id" : "obj-68",
					"lastchannelcount" : 0,
					"maxclass" : "live.gain~",
					"numinlets" : 2,
					"numoutlets" : 5,
					"orientation" : 1,
					"outlettype" : [ "signal", "signal", "", "float", "list" ],
					"parameter_enable" : 1,
					"patching_rect" : [ 209.0, 109.0, 136.0, 47.0 ],
					"saved_attribute_attributes" : 					{
						"valueof" : 						{
							"parameter_longname" : "live.gain~[5]",
							"parameter_mmax" : 6.0,
							"parameter_mmin" : -70.0,
							"parameter_modmode" : 3,
							"parameter_shortname" : "live.gain~[5]",
							"parameter_type" : 0,
							"parameter_unitstyle" : 4
						}

					}
,
					"varname" : "live.gain~[5]"
				}

			}
, 			{
				"box" : 				{
					"id" : "obj-67",
					"maxclass" : "comment",
					"numinlets" : 1,
					"numoutlets" : 0,
					"patching_rect" : [ 432.0, 114.0, 34.0, 20.0 ],
					"text" : "amp",
					"textcolor" : [ 1.0, 1.0, 1.0, 1.0 ]
				}

			}
, 			{
				"box" : 				{
					"id" : "obj-66",
					"maxclass" : "comment",
					"numinlets" : 1,
					"numoutlets" : 0,
					"patching_rect" : [ 432.0, 89.0, 34.0, 20.0 ],
					"text" : "freq",
					"textcolor" : [ 1.0, 1.0, 1.0, 1.0 ]
				}

			}
, 			{
				"box" : 				{
					"format" : 6,
					"id" : "obj-63",
					"maxclass" : "flonum",
					"numinlets" : 1,
					"numoutlets" : 2,
					"outlettype" : [ "", "bang" ],
					"parameter_enable" : 0,
					"patching_rect" : [ 380.0, 113.0, 50.0, 22.0 ]
				}

			}
, 			{
				"box" : 				{
					"format" : 6,
					"id" : "obj-62",
					"maxclass" : "flonum",
					"numinlets" : 1,
					"numoutlets" : 2,
					"outlettype" : [ "", "bang" ],
					"parameter_enable" : 0,
					"patching_rect" : [ 380.0, 85.0, 50.0, 22.0 ]
				}

			}
, 			{
				"box" : 				{
					"id" : "obj-60",
					"maxclass" : "newobj",
					"numinlets" : 1,
					"numoutlets" : 1,
					"outlettype" : [ "" ],
					"patching_rect" : [ 380.0, 49.0, 32.0, 22.0 ],
					"text" : "mtof"
				}

			}
, 			{
				"box" : 				{
					"id" : "obj-59",
					"maxclass" : "newobj",
					"numinlets" : 1,
					"numoutlets" : 10,
					"outlettype" : [ "", "", "", "", "", "", "", "", "float", "float" ],
					"patcher" : 					{
						"fileversion" : 1,
						"appversion" : 						{
							"major" : 8,
							"minor" : 6,
							"revision" : 4,
							"architecture" : "x64",
							"modernui" : 1
						}
,
						"classnamespace" : "box",
						"rect" : [ 1032.0, 122.0, 640.0, 480.0 ],
						"bglocked" : 0,
						"openinpresentation" : 0,
						"default_fontsize" : 12.0,
						"default_fontface" : 0,
						"default_fontname" : "Arial",
						"gridonopen" : 1,
						"gridsize" : [ 15.0, 15.0 ],
						"gridsnaponopen" : 1,
						"objectsnaponopen" : 1,
						"statusbarvisible" : 2,
						"toolbarvisible" : 1,
						"lefttoolbarpinned" : 0,
						"toptoolbarpinned" : 0,
						"righttoolbarpinned" : 0,
						"bottomtoolbarpinned" : 0,
						"toolbars_unpinned_last_save" : 0,
						"tallnewobj" : 0,
						"boxanimatetime" : 200,
						"enablehscroll" : 1,
						"enablevscroll" : 1,
						"devicewidth" : 0.0,
						"description" : "",
						"digest" : "",
						"tags" : "",
						"style" : "",
						"subpatcher_template" : "",
						"assistshowspatchername" : 0,
						"boxes" : [ 							{
								"box" : 								{
									"comment" : "",
									"id" : "obj-50",
									"index" : 10,
									"maxclass" : "outlet",
									"numinlets" : 1,
									"numoutlets" : 0,
									"patching_rect" : [ 506.0, 438.0, 30.0, 30.0 ],
									"tricolor" : [ 0.094117647058824, 0.76078431372549, 0.294117647058824, 1.0 ]
								}

							}
, 							{
								"box" : 								{
									"comment" : "",
									"id" : "obj-49",
									"index" : 9,
									"maxclass" : "outlet",
									"numinlets" : 1,
									"numoutlets" : 0,
									"patching_rect" : [ 468.0, 438.0, 30.0, 30.0 ],
									"tricolor" : [ 0.094117647058824, 0.76078431372549, 0.294117647058824, 1.0 ]
								}

							}
, 							{
								"box" : 								{
									"comment" : "",
									"id" : "obj-48",
									"index" : 8,
									"maxclass" : "outlet",
									"numinlets" : 1,
									"numoutlets" : 0,
									"patching_rect" : [ 425.0, 438.0, 30.0, 30.0 ],
									"tricolor" : [ 0.094117647058824, 0.76078431372549, 0.294117647058824, 1.0 ]
								}

							}
, 							{
								"box" : 								{
									"comment" : "",
									"id" : "obj-47",
									"index" : 7,
									"maxclass" : "outlet",
									"numinlets" : 1,
									"numoutlets" : 0,
									"patching_rect" : [ 383.0, 438.0, 30.0, 30.0 ],
									"tricolor" : [ 0.094117647058824, 0.76078431372549, 0.294117647058824, 1.0 ]
								}

							}
, 							{
								"box" : 								{
									"comment" : "",
									"id" : "obj-46",
									"index" : 6,
									"maxclass" : "outlet",
									"numinlets" : 1,
									"numoutlets" : 0,
									"patching_rect" : [ 337.0, 438.0, 30.0, 30.0 ],
									"tricolor" : [ 0.094117647058824, 0.76078431372549, 0.294117647058824, 1.0 ]
								}

							}
, 							{
								"box" : 								{
									"comment" : "",
									"id" : "obj-45",
									"index" : 5,
									"maxclass" : "outlet",
									"numinlets" : 1,
									"numoutlets" : 0,
									"patching_rect" : [ 292.0, 438.0, 30.0, 30.0 ],
									"tricolor" : [ 0.094117647058824, 0.76078431372549, 0.294117647058824, 1.0 ]
								}

							}
, 							{
								"box" : 								{
									"comment" : "",
									"id" : "obj-44",
									"index" : 4,
									"maxclass" : "outlet",
									"numinlets" : 1,
									"numoutlets" : 0,
									"patching_rect" : [ 244.5, 438.0, 30.0, 30.0 ],
									"tricolor" : [ 0.094117647058824, 0.76078431372549, 0.294117647058824, 1.0 ]
								}

							}
, 							{
								"box" : 								{
									"comment" : "",
									"id" : "obj-42",
									"index" : 3,
									"maxclass" : "outlet",
									"numinlets" : 1,
									"numoutlets" : 0,
									"patching_rect" : [ 197.0, 438.0, 30.0, 30.0 ],
									"tricolor" : [ 0.094117647058824, 0.76078431372549, 0.294117647058824, 1.0 ]
								}

							}
, 							{
								"box" : 								{
									"comment" : "",
									"id" : "obj-41",
									"index" : 2,
									"maxclass" : "outlet",
									"numinlets" : 1,
									"numoutlets" : 0,
									"patching_rect" : [ 145.0, 438.0, 30.0, 30.0 ],
									"tricolor" : [ 0.094117647058824, 0.76078431372549, 0.294117647058824, 1.0 ]
								}

							}
, 							{
								"box" : 								{
									"format" : 6,
									"id" : "obj-39",
									"maxclass" : "flonum",
									"numinlets" : 1,
									"numoutlets" : 2,
									"outlettype" : [ "", "bang" ],
									"parameter_enable" : 0,
									"patching_rect" : [ 425.0, 123.0, 50.0, 22.0 ]
								}

							}
, 							{
								"box" : 								{
									"id" : "obj-38",
									"knobcolor" : [ 0.094117647058824, 0.76078431372549, 0.294117647058824, 1.0 ],
									"maxclass" : "slider",
									"numinlets" : 1,
									"numoutlets" : 1,
									"outlettype" : [ "" ],
									"parameter_enable" : 0,
									"patching_rect" : [ 477.0, 384.0, 112.0, 26.0 ],
									"size" : 4000.0
								}

							}
, 							{
								"box" : 								{
									"id" : "obj-37",
									"knobcolor" : [ 0.094117647058824, 0.76078431372549, 0.294117647058824, 1.0 ],
									"maxclass" : "slider",
									"numinlets" : 1,
									"numoutlets" : 1,
									"outlettype" : [ "" ],
									"parameter_enable" : 0,
									"patching_rect" : [ 346.0, 351.0, 112.0, 26.0 ],
									"size" : 4000.0
								}

							}
, 							{
								"box" : 								{
									"id" : "obj-36",
									"knobcolor" : [ 0.094117647058824, 0.76078431372549, 0.294117647058824, 1.0 ],
									"maxclass" : "slider",
									"numinlets" : 1,
									"numoutlets" : 1,
									"outlettype" : [ "" ],
									"parameter_enable" : 0,
									"patching_rect" : [ 203.5, 323.0, 112.0, 26.0 ],
									"size" : 4000.0
								}

							}
, 							{
								"box" : 								{
									"id" : "obj-35",
									"knobcolor" : [ 0.094117647058824, 0.76078431372549, 0.294117647058824, 1.0 ],
									"maxclass" : "slider",
									"numinlets" : 1,
									"numoutlets" : 1,
									"outlettype" : [ "" ],
									"parameter_enable" : 0,
									"patching_rect" : [ 63.0, 295.0, 112.0, 26.0 ],
									"size" : 4000.0
								}

							}
, 							{
								"box" : 								{
									"format" : 6,
									"id" : "obj-33",
									"maxclass" : "flonum",
									"numinlets" : 1,
									"numoutlets" : 2,
									"outlettype" : [ "", "bang" ],
									"parameter_enable" : 0,
									"patching_rect" : [ 250.0, 123.0, 50.0, 22.0 ]
								}

							}
, 							{
								"box" : 								{
									"id" : "obj-25",
									"maxclass" : "comment",
									"numinlets" : 1,
									"numoutlets" : 0,
									"patching_rect" : [ 535.0, 248.0, 37.0, 20.0 ],
									"text" : "amp"
								}

							}
, 							{
								"box" : 								{
									"id" : "obj-26",
									"maxclass" : "comment",
									"numinlets" : 1,
									"numoutlets" : 0,
									"patching_rect" : [ 477.0, 248.0, 37.0, 20.0 ],
									"text" : "freq"
								}

							}
, 							{
								"box" : 								{
									"bgcolor" : [ 0.866667, 0.866667, 0.866667, 1.0 ],
									"fontname" : "Arial",
									"fontsize" : 11.600006,
									"format" : 6,
									"htricolor" : [ 0.87, 0.82, 0.24, 1.0 ],
									"id" : "obj-27",
									"maxclass" : "flonum",
									"numinlets" : 1,
									"numoutlets" : 2,
									"outlettype" : [ "", "bang" ],
									"parameter_enable" : 0,
									"patching_rect" : [ 527.0, 216.0, 52.0, 21.0 ],
									"textcolor" : [ 0.0, 0.0, 0.0, 1.0 ],
									"tricolor" : [ 0.75, 0.75, 0.75, 1.0 ],
									"triscale" : 0.9
								}

							}
, 							{
								"box" : 								{
									"bgcolor" : [ 0.866667, 0.866667, 0.866667, 1.0 ],
									"fontname" : "Arial",
									"fontsize" : 11.600006,
									"format" : 6,
									"htricolor" : [ 0.87, 0.82, 0.24, 1.0 ],
									"id" : "obj-28",
									"maxclass" : "flonum",
									"numinlets" : 1,
									"numoutlets" : 2,
									"outlettype" : [ "", "bang" ],
									"parameter_enable" : 0,
									"patching_rect" : [ 468.0, 216.0, 54.0, 21.0 ],
									"textcolor" : [ 0.0, 0.0, 0.0, 1.0 ],
									"tricolor" : [ 0.75, 0.75, 0.75, 1.0 ],
									"triscale" : 0.9
								}

							}
, 							{
								"box" : 								{
									"id" : "obj-29",
									"maxclass" : "newobj",
									"numinlets" : 1,
									"numoutlets" : 4,
									"outlettype" : [ "float", "float", "float", "float" ],
									"patching_rect" : [ 500.0, 168.0, 101.0, 22.0 ],
									"text" : "unpack 0. 0. 0. 0."
								}

							}
, 							{
								"box" : 								{
									"id" : "obj-19",
									"maxclass" : "comment",
									"numinlets" : 1,
									"numoutlets" : 0,
									"patching_rect" : [ 404.0, 248.0, 37.0, 20.0 ],
									"text" : "amp"
								}

							}
, 							{
								"box" : 								{
									"id" : "obj-20",
									"maxclass" : "comment",
									"numinlets" : 1,
									"numoutlets" : 0,
									"patching_rect" : [ 346.0, 248.0, 37.0, 20.0 ],
									"text" : "freq"
								}

							}
, 							{
								"box" : 								{
									"bgcolor" : [ 0.866667, 0.866667, 0.866667, 1.0 ],
									"fontname" : "Arial",
									"fontsize" : 11.600006,
									"format" : 6,
									"htricolor" : [ 0.87, 0.82, 0.24, 1.0 ],
									"id" : "obj-21",
									"maxclass" : "flonum",
									"numinlets" : 1,
									"numoutlets" : 2,
									"outlettype" : [ "", "bang" ],
									"parameter_enable" : 0,
									"patching_rect" : [ 396.0, 216.0, 52.0, 21.0 ],
									"textcolor" : [ 0.0, 0.0, 0.0, 1.0 ],
									"tricolor" : [ 0.75, 0.75, 0.75, 1.0 ],
									"triscale" : 0.9
								}

							}
, 							{
								"box" : 								{
									"bgcolor" : [ 0.866667, 0.866667, 0.866667, 1.0 ],
									"fontname" : "Arial",
									"fontsize" : 11.600006,
									"format" : 6,
									"htricolor" : [ 0.87, 0.82, 0.24, 1.0 ],
									"id" : "obj-22",
									"maxclass" : "flonum",
									"numinlets" : 1,
									"numoutlets" : 2,
									"outlettype" : [ "", "bang" ],
									"parameter_enable" : 0,
									"patching_rect" : [ 337.0, 216.0, 54.0, 21.0 ],
									"textcolor" : [ 0.0, 0.0, 0.0, 1.0 ],
									"tricolor" : [ 0.75, 0.75, 0.75, 1.0 ],
									"triscale" : 0.9
								}

							}
, 							{
								"box" : 								{
									"id" : "obj-24",
									"maxclass" : "newobj",
									"numinlets" : 1,
									"numoutlets" : 4,
									"outlettype" : [ "float", "float", "float", "float" ],
									"patching_rect" : [ 369.0, 168.0, 101.0, 22.0 ],
									"text" : "unpack 0. 0. 0. 0."
								}

							}
, 							{
								"box" : 								{
									"id" : "obj-13",
									"maxclass" : "comment",
									"numinlets" : 1,
									"numoutlets" : 0,
									"patching_rect" : [ 274.0, 248.0, 37.0, 20.0 ],
									"text" : "amp"
								}

							}
, 							{
								"box" : 								{
									"id" : "obj-14",
									"maxclass" : "comment",
									"numinlets" : 1,
									"numoutlets" : 0,
									"patching_rect" : [ 216.0, 248.0, 37.0, 20.0 ],
									"text" : "freq"
								}

							}
, 							{
								"box" : 								{
									"bgcolor" : [ 0.866667, 0.866667, 0.866667, 1.0 ],
									"fontname" : "Arial",
									"fontsize" : 11.600006,
									"format" : 6,
									"htricolor" : [ 0.87, 0.82, 0.24, 1.0 ],
									"id" : "obj-15",
									"maxclass" : "flonum",
									"numinlets" : 1,
									"numoutlets" : 2,
									"outlettype" : [ "", "bang" ],
									"parameter_enable" : 0,
									"patching_rect" : [ 266.0, 216.0, 52.0, 21.0 ],
									"textcolor" : [ 0.0, 0.0, 0.0, 1.0 ],
									"tricolor" : [ 0.75, 0.75, 0.75, 1.0 ],
									"triscale" : 0.9
								}

							}
, 							{
								"box" : 								{
									"bgcolor" : [ 0.866667, 0.866667, 0.866667, 1.0 ],
									"fontname" : "Arial",
									"fontsize" : 11.600006,
									"format" : 6,
									"htricolor" : [ 0.87, 0.82, 0.24, 1.0 ],
									"id" : "obj-16",
									"maxclass" : "flonum",
									"numinlets" : 1,
									"numoutlets" : 2,
									"outlettype" : [ "", "bang" ],
									"parameter_enable" : 0,
									"patching_rect" : [ 207.0, 216.0, 54.0, 21.0 ],
									"textcolor" : [ 0.0, 0.0, 0.0, 1.0 ],
									"tricolor" : [ 0.75, 0.75, 0.75, 1.0 ],
									"triscale" : 0.9
								}

							}
, 							{
								"box" : 								{
									"id" : "obj-18",
									"maxclass" : "newobj",
									"numinlets" : 1,
									"numoutlets" : 4,
									"outlettype" : [ "float", "float", "float", "float" ],
									"patching_rect" : [ 239.0, 168.0, 101.0, 22.0 ],
									"text" : "unpack 0. 0. 0. 0."
								}

							}
, 							{
								"box" : 								{
									"id" : "obj-9",
									"maxclass" : "comment",
									"numinlets" : 1,
									"numoutlets" : 0,
									"patching_rect" : [ 125.833333333333314, 248.0, 37.0, 20.0 ],
									"text" : "amp"
								}

							}
, 							{
								"box" : 								{
									"id" : "obj-8",
									"maxclass" : "comment",
									"numinlets" : 1,
									"numoutlets" : 0,
									"patching_rect" : [ 67.5, 248.0, 37.0, 20.0 ],
									"text" : "freq"
								}

							}
, 							{
								"box" : 								{
									"bgcolor" : [ 0.866667, 0.866667, 0.866667, 1.0 ],
									"fontname" : "Arial",
									"fontsize" : 11.600006,
									"format" : 6,
									"htricolor" : [ 0.87, 0.82, 0.24, 1.0 ],
									"id" : "obj-6",
									"maxclass" : "flonum",
									"numinlets" : 1,
									"numoutlets" : 2,
									"outlettype" : [ "", "bang" ],
									"parameter_enable" : 0,
									"patching_rect" : [ 118.333333333333329, 216.0, 52.0, 21.0 ],
									"textcolor" : [ 0.0, 0.0, 0.0, 1.0 ],
									"tricolor" : [ 0.75, 0.75, 0.75, 1.0 ],
									"triscale" : 0.9
								}

							}
, 							{
								"box" : 								{
									"bgcolor" : [ 0.866667, 0.866667, 0.866667, 1.0 ],
									"fontname" : "Arial",
									"fontsize" : 11.600006,
									"format" : 6,
									"htricolor" : [ 0.87, 0.82, 0.24, 1.0 ],
									"id" : "obj-23",
									"maxclass" : "flonum",
									"numinlets" : 1,
									"numoutlets" : 2,
									"outlettype" : [ "", "bang" ],
									"parameter_enable" : 0,
									"patching_rect" : [ 59.0, 216.0, 54.0, 21.0 ],
									"textcolor" : [ 0.0, 0.0, 0.0, 1.0 ],
									"tricolor" : [ 0.75, 0.75, 0.75, 1.0 ],
									"triscale" : 0.9
								}

							}
, 							{
								"box" : 								{
									"id" : "obj-5",
									"maxclass" : "comment",
									"numinlets" : 1,
									"numoutlets" : 0,
									"patching_rect" : [ 3.0, 169.0, 86.0, 20.0 ],
									"text" : "loudest partial"
								}

							}
, 							{
								"box" : 								{
									"id" : "obj-3",
									"maxclass" : "newobj",
									"numinlets" : 1,
									"numoutlets" : 4,
									"outlettype" : [ "float", "float", "float", "float" ],
									"patching_rect" : [ 91.0, 168.0, 101.0, 22.0 ],
									"text" : "unpack 0. 0. 0. 0."
								}

							}
, 							{
								"box" : 								{
									"id" : "obj-43",
									"maxclass" : "newobj",
									"numinlets" : 5,
									"numoutlets" : 5,
									"outlettype" : [ "", "", "", "", "" ],
									"patching_rect" : [ 91.0, 123.0, 76.0, 22.0 ],
									"text" : "route 0 1 2 3"
								}

							}
, 							{
								"box" : 								{
									"id" : "obj-11",
									"maxclass" : "newobj",
									"numinlets" : 1,
									"numoutlets" : 3,
									"outlettype" : [ "list", "float", "float" ],
									"patching_rect" : [ 91.0, 86.0, 366.0, 22.0 ],
									"text" : "sigmund~ @hop 8192 @minpower 0.01 @npeak 4 peaks pitch env"
								}

							}
, 							{
								"box" : 								{
									"comment" : "",
									"id" : "obj-2",
									"index" : 1,
									"maxclass" : "outlet",
									"numinlets" : 1,
									"numoutlets" : 0,
									"patching_rect" : [ 91.0, 438.0, 30.0, 30.0 ],
									"tricolor" : [ 0.094117647058824, 0.76078431372549, 0.294117647058824, 1.0 ]
								}

							}
, 							{
								"box" : 								{
									"comment" : "",
									"id" : "obj-1",
									"index" : 1,
									"maxclass" : "inlet",
									"numinlets" : 0,
									"numoutlets" : 1,
									"outlettype" : [ "signal" ],
									"patching_rect" : [ 91.0, 32.0, 30.0, 30.0 ],
									"tricolor" : [ 0.094117647058824, 0.76078431372549, 0.294117647058824, 1.0 ]
								}

							}
 ],
						"lines" : [ 							{
								"patchline" : 								{
									"destination" : [ "obj-11", 0 ],
									"midpoints" : [ 100.5, 63.0, 100.5, 63.0 ],
									"source" : [ "obj-1", 0 ]
								}

							}
, 							{
								"patchline" : 								{
									"destination" : [ "obj-33", 0 ],
									"midpoints" : [ 274.0, 111.0, 261.0, 111.0, 261.0, 117.0, 259.5, 117.0 ],
									"source" : [ "obj-11", 1 ]
								}

							}
, 							{
								"patchline" : 								{
									"destination" : [ "obj-39", 0 ],
									"midpoints" : [ 447.5, 111.0, 435.0, 111.0, 435.0, 117.0, 434.5, 117.0 ],
									"source" : [ "obj-11", 2 ]
								}

							}
, 							{
								"patchline" : 								{
									"destination" : [ "obj-43", 0 ],
									"midpoints" : [ 100.5, 111.0, 100.5, 111.0 ],
									"source" : [ "obj-11", 0 ]
								}

							}
, 							{
								"patchline" : 								{
									"destination" : [ "obj-46", 0 ],
									"midpoints" : [ 275.5, 240.0, 321.0, 240.0, 321.0, 309.0, 333.0, 309.0, 333.0, 423.0, 346.5, 423.0 ],
									"source" : [ "obj-15", 0 ]
								}

							}
, 							{
								"patchline" : 								{
									"destination" : [ "obj-36", 0 ],
									"midpoints" : [ 216.5, 240.0, 213.0, 240.0 ],
									"order" : 1,
									"source" : [ "obj-16", 0 ]
								}

							}
, 							{
								"patchline" : 								{
									"destination" : [ "obj-45", 0 ],
									"midpoints" : [ 216.5, 240.0, 189.0, 240.0, 189.0, 423.0, 301.5, 423.0 ],
									"order" : 0,
									"source" : [ "obj-16", 0 ]
								}

							}
, 							{
								"patchline" : 								{
									"destination" : [ "obj-15", 0 ],
									"midpoints" : [ 275.833333333333314, 192.0, 275.5, 192.0 ],
									"source" : [ "obj-18", 1 ]
								}

							}
, 							{
								"patchline" : 								{
									"destination" : [ "obj-16", 0 ],
									"midpoints" : [ 248.5, 201.0, 216.5, 201.0 ],
									"source" : [ "obj-18", 0 ]
								}

							}
, 							{
								"patchline" : 								{
									"destination" : [ "obj-48", 0 ],
									"midpoints" : [ 405.5, 240.0, 453.0, 240.0, 453.0, 336.0, 468.0, 336.0, 468.0, 387.0, 434.5, 387.0 ],
									"source" : [ "obj-21", 0 ]
								}

							}
, 							{
								"patchline" : 								{
									"destination" : [ "obj-37", 0 ],
									"midpoints" : [ 346.5, 240.0, 333.0, 240.0, 333.0, 336.0, 355.5, 336.0 ],
									"order" : 1,
									"source" : [ "obj-22", 0 ]
								}

							}
, 							{
								"patchline" : 								{
									"destination" : [ "obj-47", 0 ],
									"midpoints" : [ 346.5, 240.0, 333.0, 240.0, 333.0, 423.0, 392.5, 423.0 ],
									"order" : 0,
									"source" : [ "obj-22", 0 ]
								}

							}
, 							{
								"patchline" : 								{
									"destination" : [ "obj-35", 0 ],
									"midpoints" : [ 68.5, 240.0, 54.0, 240.0, 54.0, 282.0, 72.5, 282.0 ],
									"order" : 1,
									"source" : [ "obj-23", 0 ]
								}

							}
, 							{
								"patchline" : 								{
									"destination" : [ "obj-42", 0 ],
									"midpoints" : [ 68.5, 240.0, 54.0, 240.0, 54.0, 282.0, 189.0, 282.0, 189.0, 423.0, 206.5, 423.0 ],
									"order" : 0,
									"source" : [ "obj-23", 0 ]
								}

							}
, 							{
								"patchline" : 								{
									"destination" : [ "obj-21", 0 ],
									"midpoints" : [ 405.833333333333314, 192.0, 405.5, 192.0 ],
									"source" : [ "obj-24", 1 ]
								}

							}
, 							{
								"patchline" : 								{
									"destination" : [ "obj-22", 0 ],
									"midpoints" : [ 378.5, 201.0, 346.5, 201.0 ],
									"source" : [ "obj-24", 0 ]
								}

							}
, 							{
								"patchline" : 								{
									"destination" : [ "obj-38", 0 ],
									"midpoints" : [ 477.5, 243.0, 474.0, 243.0, 474.0, 369.0, 486.5, 369.0 ],
									"source" : [ "obj-28", 0 ]
								}

							}
, 							{
								"patchline" : 								{
									"destination" : [ "obj-27", 0 ],
									"midpoints" : [ 536.833333333333371, 192.0, 536.5, 192.0 ],
									"order" : 0,
									"source" : [ "obj-29", 1 ]
								}

							}
, 							{
								"patchline" : 								{
									"destination" : [ "obj-28", 0 ],
									"midpoints" : [ 509.5, 201.0, 477.5, 201.0 ],
									"order" : 1,
									"source" : [ "obj-29", 0 ]
								}

							}
, 							{
								"patchline" : 								{
									"destination" : [ "obj-49", 0 ],
									"midpoints" : [ 509.5, 201.0, 462.0, 201.0, 462.0, 336.0, 474.0, 336.0, 474.0, 432.0, 477.5, 432.0 ],
									"order" : 0,
									"source" : [ "obj-29", 0 ]
								}

							}
, 							{
								"patchline" : 								{
									"destination" : [ "obj-50", 0 ],
									"midpoints" : [ 536.833333333333371, 201.0, 600.0, 201.0, 600.0, 423.0, 515.5, 423.0 ],
									"order" : 1,
									"source" : [ "obj-29", 1 ]
								}

							}
, 							{
								"patchline" : 								{
									"destination" : [ "obj-23", 0 ],
									"midpoints" : [ 100.5, 201.0, 68.5, 201.0 ],
									"source" : [ "obj-3", 0 ]
								}

							}
, 							{
								"patchline" : 								{
									"destination" : [ "obj-6", 0 ],
									"midpoints" : [ 127.833333333333329, 192.0, 127.833333333333329, 192.0 ],
									"source" : [ "obj-3", 1 ]
								}

							}
, 							{
								"patchline" : 								{
									"destination" : [ "obj-2", 0 ],
									"midpoints" : [ 259.5, 147.0, 204.0, 147.0, 204.0, 201.0, 186.0, 201.0, 186.0, 423.0, 100.5, 423.0 ],
									"source" : [ "obj-33", 0 ]
								}

							}
, 							{
								"patchline" : 								{
									"destination" : [ "obj-41", 0 ],
									"midpoints" : [ 434.5, 147.0, 351.0, 147.0, 351.0, 201.0, 186.0, 201.0, 186.0, 423.0, 154.5, 423.0 ],
									"source" : [ "obj-39", 0 ]
								}

							}
, 							{
								"patchline" : 								{
									"destination" : [ "obj-18", 0 ],
									"midpoints" : [ 114.75, 147.0, 237.0, 147.0, 237.0, 162.0, 248.5, 162.0 ],
									"source" : [ "obj-43", 1 ]
								}

							}
, 							{
								"patchline" : 								{
									"destination" : [ "obj-24", 0 ],
									"midpoints" : [ 129.0, 147.0, 378.5, 147.0 ],
									"source" : [ "obj-43", 2 ]
								}

							}
, 							{
								"patchline" : 								{
									"destination" : [ "obj-29", 0 ],
									"midpoints" : [ 143.25, 147.0, 225.0, 147.0, 225.0, 201.0, 486.0, 201.0, 486.0, 162.0, 509.5, 162.0 ],
									"source" : [ "obj-43", 3 ]
								}

							}
, 							{
								"patchline" : 								{
									"destination" : [ "obj-3", 0 ],
									"midpoints" : [ 100.5, 147.0, 100.5, 147.0 ],
									"source" : [ "obj-43", 0 ]
								}

							}
, 							{
								"patchline" : 								{
									"destination" : [ "obj-44", 0 ],
									"midpoints" : [ 127.833333333333329, 240.0, 189.0, 240.0, 189.0, 423.0, 254.0, 423.0 ],
									"source" : [ "obj-6", 0 ]
								}

							}
 ]
					}
,
					"patching_rect" : [ 380.0, 20.5, 190.0, 22.0 ],
					"saved_object_attributes" : 					{
						"description" : "",
						"digest" : "",
						"globalpatchername" : "",
						"tags" : ""
					}
,
					"text" : "p detect_freqs"
				}

			}
, 			{
				"box" : 				{
					"color" : [ 1.0, 0.450980392156863, 0.705882352941177, 1.0 ],
					"id" : "obj-5",
					"maxclass" : "ezadc~",
					"numinlets" : 1,
					"numoutlets" : 2,
					"outlettype" : [ "signal", "signal" ],
					"patching_rect" : [ 220.0, 20.0, 72.0, 72.0 ]
				}

			}
, 			{
				"box" : 				{
					"format" : 6,
					"id" : "obj-32",
					"maxclass" : "flonum",
					"numinlets" : 1,
					"numoutlets" : 2,
					"outlettype" : [ "", "bang" ],
					"parameter_enable" : 0,
					"patching_rect" : [ 844.0, 608.0, 50.0, 22.0 ]
				}

			}
, 			{
				"box" : 				{
					"format" : 6,
					"id" : "obj-13",
					"maxclass" : "flonum",
					"numinlets" : 1,
					"numoutlets" : 2,
					"outlettype" : [ "", "bang" ],
					"parameter_enable" : 0,
					"patching_rect" : [ 455.0, 546.0, 50.0, 22.0 ]
				}

			}
, 			{
				"box" : 				{
					"format" : 6,
					"id" : "obj-9",
					"maxclass" : "flonum",
					"numinlets" : 1,
					"numoutlets" : 2,
					"outlettype" : [ "", "bang" ],
					"parameter_enable" : 0,
					"patching_rect" : [ 99.0, 554.0, 50.0, 22.0 ]
				}

			}
, 			{
				"box" : 				{
					"format" : 6,
					"id" : "obj-6",
					"maxclass" : "flonum",
					"numinlets" : 1,
					"numoutlets" : 2,
					"outlettype" : [ "", "bang" ],
					"parameter_enable" : 0,
					"patching_rect" : [ 1056.0, 45.0, 50.0, 22.0 ]
				}

			}
, 			{
				"box" : 				{
					"id" : "obj-1",
					"lastchannelcount" : 0,
					"maxclass" : "live.gain~",
					"numinlets" : 2,
					"numoutlets" : 5,
					"orientation" : 1,
					"outlettype" : [ "signal", "signal", "", "float", "list" ],
					"parameter_enable" : 1,
					"patching_rect" : [ 340.0, 663.0, 202.0, 47.0 ],
					"saved_attribute_attributes" : 					{
						"valueof" : 						{
							"parameter_longname" : "live.gain~[4]",
							"parameter_mmax" : 6.0,
							"parameter_mmin" : -70.0,
							"parameter_modmode" : 3,
							"parameter_shortname" : "live.gain~[4]",
							"parameter_type" : 0,
							"parameter_unitstyle" : 4
						}

					}
,
					"varname" : "live.gain~[4]"
				}

			}
, 			{
				"box" : 				{
					"id" : "obj-58",
					"maxclass" : "newobj",
					"numinlets" : 6,
					"numoutlets" : 1,
					"outlettype" : [ "" ],
					"patching_rect" : [ 857.0, 45.0, 147.0, 22.0 ],
					"text" : "scale -50. 8000. 45. 2000."
				}

			}
, 			{
				"box" : 				{
					"id" : "obj-57",
					"maxclass" : "newobj",
					"numinlets" : 6,
					"numoutlets" : 1,
					"outlettype" : [ "" ],
					"patching_rect" : [ 485.0, 518.0, 123.0, 22.0 ],
					"text" : "scale 0. 100. 50. 900."
				}

			}
, 			{
				"box" : 				{
					"id" : "obj-56",
					"maxclass" : "newobj",
					"numinlets" : 6,
					"numoutlets" : 1,
					"outlettype" : [ "" ],
					"patching_rect" : [ 91.0, 518.0, 141.0, 22.0 ],
					"text" : "scale -10. 125. 100. 440."
				}

			}
, 			{
				"box" : 				{
					"id" : "obj-55",
					"maxclass" : "newobj",
					"numinlets" : 6,
					"numoutlets" : 1,
					"outlettype" : [ "" ],
					"patching_rect" : [ 873.0, 561.0, 143.0, 22.0 ],
					"text" : "scale 400. 1050. 500. 75."
				}

			}
, 			{
				"box" : 				{
					"id" : "obj-53",
					"lastchannelcount" : 0,
					"maxclass" : "live.gain~",
					"numinlets" : 2,
					"numoutlets" : 5,
					"orientation" : 1,
					"outlettype" : [ "signal", "signal", "", "float", "list" ],
					"parameter_enable" : 1,
					"patching_rect" : [ 972.0, 84.0, 126.0, 47.0 ],
					"saved_attribute_attributes" : 					{
						"valueof" : 						{
							"parameter_longname" : "live.gain~[3]",
							"parameter_mmax" : 6.0,
							"parameter_mmin" : -70.0,
							"parameter_modmode" : 3,
							"parameter_shortname" : "live.gain~",
							"parameter_type" : 0,
							"parameter_unitstyle" : 4
						}

					}
,
					"varname" : "live.gain~[3]"
				}

			}
, 			{
				"box" : 				{
					"id" : "obj-54",
					"maxclass" : "newobj",
					"numinlets" : 2,
					"numoutlets" : 1,
					"outlettype" : [ "signal" ],
					"patching_rect" : [ 886.0, 84.0, 43.0, 22.0 ],
					"text" : "cycle~"
				}

			}
, 			{
				"box" : 				{
					"id" : "obj-50",
					"lastchannelcount" : 0,
					"maxclass" : "live.gain~",
					"numinlets" : 2,
					"numoutlets" : 5,
					"orientation" : 1,
					"outlettype" : [ "signal", "signal", "", "float", "list" ],
					"parameter_enable" : 1,
					"patching_rect" : [ 1028.5, 608.0, 126.0, 47.0 ],
					"saved_attribute_attributes" : 					{
						"valueof" : 						{
							"parameter_longname" : "live.gain~[2]",
							"parameter_mmax" : 6.0,
							"parameter_mmin" : -70.0,
							"parameter_modmode" : 3,
							"parameter_shortname" : "live.gain~",
							"parameter_type" : 0,
							"parameter_unitstyle" : 4
						}

					}
,
					"varname" : "live.gain~[2]"
				}

			}
, 			{
				"box" : 				{
					"id" : "obj-51",
					"maxclass" : "newobj",
					"numinlets" : 2,
					"numoutlets" : 1,
					"outlettype" : [ "signal" ],
					"patching_rect" : [ 951.5, 608.0, 43.0, 22.0 ],
					"text" : "cycle~"
				}

			}
, 			{
				"box" : 				{
					"id" : "obj-48",
					"lastchannelcount" : 0,
					"maxclass" : "live.gain~",
					"numinlets" : 2,
					"numoutlets" : 5,
					"orientation" : 1,
					"outlettype" : [ "signal", "signal", "", "float", "list" ],
					"parameter_enable" : 1,
					"patching_rect" : [ 626.0, 534.0, 126.0, 47.0 ],
					"saved_attribute_attributes" : 					{
						"valueof" : 						{
							"parameter_longname" : "live.gain~[1]",
							"parameter_mmax" : 6.0,
							"parameter_mmin" : -70.0,
							"parameter_modmode" : 3,
							"parameter_shortname" : "live.gain~",
							"parameter_type" : 0,
							"parameter_unitstyle" : 4
						}

					}
,
					"varname" : "live.gain~[1]"
				}

			}
, 			{
				"box" : 				{
					"id" : "obj-49",
					"maxclass" : "newobj",
					"numinlets" : 2,
					"numoutlets" : 1,
					"outlettype" : [ "signal" ],
					"patching_rect" : [ 525.0, 546.0, 43.0, 22.0 ],
					"text" : "cycle~"
				}

			}
, 			{
				"box" : 				{
					"id" : "obj-47",
					"lastchannelcount" : 0,
					"maxclass" : "live.gain~",
					"numinlets" : 2,
					"numoutlets" : 5,
					"orientation" : 1,
					"outlettype" : [ "signal", "signal", "", "float", "list" ],
					"parameter_enable" : 1,
					"patching_rect" : [ 258.0, 554.0, 126.0, 47.0 ],
					"saved_attribute_attributes" : 					{
						"valueof" : 						{
							"parameter_longname" : "live.gain~",
							"parameter_mmax" : 6.0,
							"parameter_mmin" : -70.0,
							"parameter_modmode" : 3,
							"parameter_shortname" : "live.gain~",
							"parameter_type" : 0,
							"parameter_unitstyle" : 4
						}

					}
,
					"varname" : "live.gain~"
				}

			}
, 			{
				"box" : 				{
					"color" : [ 1.0, 0.450980392156863, 0.705882352941177, 1.0 ],
					"id" : "obj-45",
					"maxclass" : "ezdac~",
					"numinlets" : 2,
					"numoutlets" : 0,
					"patching_rect" : [ 574.0, 642.0, 81.0, 81.0 ]
				}

			}
, 			{
				"box" : 				{
					"id" : "obj-38",
					"maxclass" : "newobj",
					"numinlets" : 2,
					"numoutlets" : 1,
					"outlettype" : [ "signal" ],
					"patching_rect" : [ 172.0, 554.0, 43.0, 22.0 ],
					"text" : "cycle~"
				}

			}
, 			{
				"box" : 				{
					"id" : "obj-37",
					"maxclass" : "newobj",
					"numinlets" : 1,
					"numoutlets" : 1,
					"outlettype" : [ "float" ],
					"patcher" : 					{
						"fileversion" : 1,
						"appversion" : 						{
							"major" : 8,
							"minor" : 6,
							"revision" : 4,
							"architecture" : "x64",
							"modernui" : 1
						}
,
						"classnamespace" : "box",
						"rect" : [ 1082.0, 213.0, 640.0, 480.0 ],
						"bglocked" : 0,
						"openinpresentation" : 0,
						"default_fontsize" : 12.0,
						"default_fontface" : 0,
						"default_fontname" : "Arial",
						"gridonopen" : 1,
						"gridsize" : [ 15.0, 15.0 ],
						"gridsnaponopen" : 1,
						"objectsnaponopen" : 1,
						"statusbarvisible" : 2,
						"toolbarvisible" : 1,
						"lefttoolbarpinned" : 0,
						"toptoolbarpinned" : 0,
						"righttoolbarpinned" : 0,
						"bottomtoolbarpinned" : 0,
						"toolbars_unpinned_last_save" : 0,
						"tallnewobj" : 0,
						"boxanimatetime" : 200,
						"enablehscroll" : 1,
						"enablevscroll" : 1,
						"devicewidth" : 0.0,
						"description" : "",
						"digest" : "",
						"tags" : "",
						"style" : "",
						"subpatcher_template" : "",
						"assistshowspatchername" : 0,
						"boxes" : [ 							{
								"box" : 								{
									"id" : "obj-3",
									"maxclass" : "newobj",
									"numinlets" : 2,
									"numoutlets" : 1,
									"outlettype" : [ "float" ],
									"patching_rect" : [ 253.25, 191.0, 33.0, 22.0 ],
									"text" : "- 50."
								}

							}
, 							{
								"box" : 								{
									"id" : "obj-5",
									"maxclass" : "newobj",
									"numinlets" : 2,
									"numoutlets" : 1,
									"outlettype" : [ "float" ],
									"patching_rect" : [ 257.0, 147.0, 45.0, 22.0 ],
									"text" : "/ 2.048"
								}

							}
, 							{
								"box" : 								{
									"id" : "obj-4",
									"maxclass" : "number",
									"numinlets" : 1,
									"numoutlets" : 2,
									"outlettype" : [ "", "bang" ],
									"parameter_enable" : 0,
									"patching_rect" : [ 258.0, 104.0, 50.0, 22.0 ]
								}

							}
, 							{
								"box" : 								{
									"comment" : "",
									"id" : "obj-2",
									"index" : 1,
									"maxclass" : "outlet",
									"numinlets" : 1,
									"numoutlets" : 0,
									"patching_rect" : [ 253.0, 235.0, 30.0, 30.0 ]
								}

							}
, 							{
								"box" : 								{
									"comment" : "",
									"id" : "obj-1",
									"index" : 1,
									"maxclass" : "inlet",
									"numinlets" : 0,
									"numoutlets" : 1,
									"outlettype" : [ "" ],
									"patching_rect" : [ 260.0, 49.0, 30.0, 30.0 ]
								}

							}
 ],
						"lines" : [ 							{
								"patchline" : 								{
									"destination" : [ "obj-4", 0 ],
									"source" : [ "obj-1", 0 ]
								}

							}
, 							{
								"patchline" : 								{
									"destination" : [ "obj-2", 0 ],
									"source" : [ "obj-3", 0 ]
								}

							}
, 							{
								"patchline" : 								{
									"destination" : [ "obj-5", 0 ],
									"source" : [ "obj-4", 0 ]
								}

							}
, 							{
								"patchline" : 								{
									"destination" : [ "obj-3", 0 ],
									"source" : [ "obj-5", 0 ]
								}

							}
 ]
					}
,
					"patching_rect" : [ 469.0, 257.0, 92.0, 22.0 ],
					"saved_object_attributes" : 					{
						"description" : "",
						"digest" : "",
						"globalpatchername" : "",
						"tags" : ""
					}
,
					"text" : "p scale_altitude"
				}

			}
, 			{
				"box" : 				{
					"id" : "obj-36",
					"maxclass" : "newobj",
					"numinlets" : 1,
					"numoutlets" : 1,
					"outlettype" : [ "float" ],
					"patcher" : 					{
						"fileversion" : 1,
						"appversion" : 						{
							"major" : 8,
							"minor" : 6,
							"revision" : 4,
							"architecture" : "x64",
							"modernui" : 1
						}
,
						"classnamespace" : "box",
						"rect" : [ 1094.0, 446.0, 640.0, 480.0 ],
						"bglocked" : 0,
						"openinpresentation" : 0,
						"default_fontsize" : 12.0,
						"default_fontface" : 0,
						"default_fontname" : "Arial",
						"gridonopen" : 1,
						"gridsize" : [ 15.0, 15.0 ],
						"gridsnaponopen" : 1,
						"objectsnaponopen" : 1,
						"statusbarvisible" : 2,
						"toolbarvisible" : 1,
						"lefttoolbarpinned" : 0,
						"toptoolbarpinned" : 0,
						"righttoolbarpinned" : 0,
						"bottomtoolbarpinned" : 0,
						"toolbars_unpinned_last_save" : 0,
						"tallnewobj" : 0,
						"boxanimatetime" : 200,
						"enablehscroll" : 1,
						"enablevscroll" : 1,
						"devicewidth" : 0.0,
						"description" : "",
						"digest" : "",
						"tags" : "",
						"style" : "",
						"subpatcher_template" : "",
						"assistshowspatchername" : 0,
						"boxes" : [ 							{
								"box" : 								{
									"id" : "obj-5",
									"maxclass" : "newobj",
									"numinlets" : 2,
									"numoutlets" : 1,
									"outlettype" : [ "float" ],
									"patching_rect" : [ 257.0, 147.0, 52.0, 22.0 ],
									"text" : "/ 163.83"
								}

							}
, 							{
								"box" : 								{
									"id" : "obj-4",
									"maxclass" : "number",
									"numinlets" : 1,
									"numoutlets" : 2,
									"outlettype" : [ "", "bang" ],
									"parameter_enable" : 0,
									"patching_rect" : [ 258.0, 104.0, 50.0, 22.0 ]
								}

							}
, 							{
								"box" : 								{
									"comment" : "",
									"id" : "obj-2",
									"index" : 1,
									"maxclass" : "outlet",
									"numinlets" : 1,
									"numoutlets" : 0,
									"patching_rect" : [ 251.0, 196.0, 30.0, 30.0 ]
								}

							}
, 							{
								"box" : 								{
									"comment" : "",
									"id" : "obj-1",
									"index" : 1,
									"maxclass" : "inlet",
									"numinlets" : 0,
									"numoutlets" : 1,
									"outlettype" : [ "" ],
									"patching_rect" : [ 260.0, 49.0, 30.0, 30.0 ]
								}

							}
 ],
						"lines" : [ 							{
								"patchline" : 								{
									"destination" : [ "obj-4", 0 ],
									"source" : [ "obj-1", 0 ]
								}

							}
, 							{
								"patchline" : 								{
									"destination" : [ "obj-5", 0 ],
									"source" : [ "obj-4", 0 ]
								}

							}
, 							{
								"patchline" : 								{
									"destination" : [ "obj-2", 0 ],
									"source" : [ "obj-5", 0 ]
								}

							}
 ]
					}
,
					"patching_rect" : [ 321.0, 257.0, 98.0, 22.0 ],
					"saved_object_attributes" : 					{
						"description" : "",
						"digest" : "",
						"globalpatchername" : "",
						"tags" : ""
					}
,
					"text" : "p scale_humidity"
				}

			}
, 			{
				"box" : 				{
					"id" : "obj-35",
					"maxclass" : "newobj",
					"numinlets" : 1,
					"numoutlets" : 1,
					"outlettype" : [ "" ],
					"patcher" : 					{
						"fileversion" : 1,
						"appversion" : 						{
							"major" : 8,
							"minor" : 6,
							"revision" : 4,
							"architecture" : "x64",
							"modernui" : 1
						}
,
						"classnamespace" : "box",
						"rect" : [ 665.0, 218.0, 640.0, 480.0 ],
						"bglocked" : 0,
						"openinpresentation" : 0,
						"default_fontsize" : 12.0,
						"default_fontface" : 0,
						"default_fontname" : "Arial",
						"gridonopen" : 1,
						"gridsize" : [ 15.0, 15.0 ],
						"gridsnaponopen" : 1,
						"objectsnaponopen" : 1,
						"statusbarvisible" : 2,
						"toolbarvisible" : 1,
						"lefttoolbarpinned" : 0,
						"toptoolbarpinned" : 0,
						"righttoolbarpinned" : 0,
						"bottomtoolbarpinned" : 0,
						"toolbars_unpinned_last_save" : 0,
						"tallnewobj" : 0,
						"boxanimatetime" : 200,
						"enablehscroll" : 1,
						"enablevscroll" : 1,
						"devicewidth" : 0.0,
						"description" : "",
						"digest" : "",
						"tags" : "",
						"style" : "",
						"subpatcher_template" : "",
						"assistshowspatchername" : 0,
						"boxes" : [ 							{
								"box" : 								{
									"id" : "obj-7",
									"maxclass" : "message",
									"numinlets" : 2,
									"numoutlets" : 1,
									"outlettype" : [ "" ],
									"patching_rect" : [ 420.0, 320.0, 50.0, 22.0 ],
									"text" : "6"
								}

							}
, 							{
								"box" : 								{
									"id" : "obj-79",
									"maxclass" : "newobj",
									"numinlets" : 1,
									"numoutlets" : 0,
									"patching_rect" : [ 280.0, 253.0, 32.0, 22.0 ],
									"text" : "print"
								}

							}
, 							{
								"box" : 								{
									"fontname" : "Arial",
									"fontsize" : 12.0,
									"id" : "obj-33",
									"maxclass" : "newobj",
									"numinlets" : 2,
									"numoutlets" : 2,
									"outlettype" : [ "bang", "" ],
									"patching_rect" : [ 201.0, 253.0, 47.0, 22.0 ],
									"text" : "sel 255"
								}

							}
, 							{
								"box" : 								{
									"fontname" : "Arial",
									"fontsize" : 12.0,
									"id" : "obj-25",
									"maxclass" : "newobj",
									"numinlets" : 2,
									"numoutlets" : 2,
									"outlettype" : [ "", "" ],
									"patching_rect" : [ 201.0, 303.0, 70.0, 22.0 ],
									"text" : "zl group 20"
								}

							}
, 							{
								"box" : 								{
									"fontname" : "Arial",
									"fontsize" : 12.0,
									"id" : "obj-11",
									"maxclass" : "message",
									"numinlets" : 2,
									"numoutlets" : 1,
									"outlettype" : [ "" ],
									"patching_rect" : [ 170.0, 94.0, 34.0, 22.0 ],
									"text" : "print"
								}

							}
, 							{
								"box" : 								{
									"fontname" : "Arial",
									"fontsize" : 12.0,
									"id" : "obj-9",
									"maxclass" : "message",
									"numinlets" : 2,
									"numoutlets" : 1,
									"outlettype" : [ "" ],
									"patching_rect" : [ 261.0, 173.0, 39.0, 22.0 ],
									"text" : "port c"
								}

							}
, 							{
								"box" : 								{
									"fontname" : "Arial",
									"fontsize" : 12.0,
									"id" : "obj-8",
									"maxclass" : "newobj",
									"numinlets" : 2,
									"numoutlets" : 2,
									"outlettype" : [ "bang", "" ],
									"patching_rect" : [ 208.0, 119.0, 36.0, 22.0 ],
									"text" : "sel 0"
								}

							}
, 							{
								"box" : 								{
									"fontname" : "Arial",
									"fontsize" : 12.0,
									"id" : "obj-5",
									"maxclass" : "message",
									"numinlets" : 2,
									"numoutlets" : 1,
									"outlettype" : [ "" ],
									"patching_rect" : [ 216.0, 172.0, 39.0, 22.0 ],
									"text" : "close"
								}

							}
, 							{
								"box" : 								{
									"fontname" : "Arial",
									"fontsize" : 12.0,
									"id" : "obj-6",
									"maxclass" : "newobj",
									"numinlets" : 2,
									"numoutlets" : 1,
									"outlettype" : [ "bang" ],
									"patching_rect" : [ 271.0, 119.0, 49.0, 22.0 ],
									"text" : "metro 5"
								}

							}
, 							{
								"box" : 								{
									"fontname" : "Arial",
									"fontsize" : 12.0,
									"id" : "obj-3",
									"maxclass" : "newobj",
									"numinlets" : 1,
									"numoutlets" : 2,
									"outlettype" : [ "int", "" ],
									"patching_rect" : [ 200.0, 218.0, 117.0, 22.0 ],
									"text" : "serial e 9600 @dtr 1"
								}

							}
, 							{
								"box" : 								{
									"comment" : "",
									"id" : "obj-2",
									"index" : 1,
									"maxclass" : "outlet",
									"numinlets" : 1,
									"numoutlets" : 0,
									"patching_rect" : [ 211.0, 372.0, 30.0, 30.0 ]
								}

							}
, 							{
								"box" : 								{
									"comment" : "",
									"id" : "obj-1",
									"index" : 1,
									"maxclass" : "inlet",
									"numinlets" : 0,
									"numoutlets" : 1,
									"outlettype" : [ "int" ],
									"patching_rect" : [ 211.0, 37.0, 30.0, 30.0 ]
								}

							}
 ],
						"lines" : [ 							{
								"patchline" : 								{
									"destination" : [ "obj-6", 0 ],
									"order" : 0,
									"source" : [ "obj-1", 0 ]
								}

							}
, 							{
								"patchline" : 								{
									"destination" : [ "obj-8", 0 ],
									"order" : 1,
									"source" : [ "obj-1", 0 ]
								}

							}
, 							{
								"patchline" : 								{
									"destination" : [ "obj-3", 0 ],
									"midpoints" : [ 179.5, 203.0, 209.5, 203.0 ],
									"source" : [ "obj-11", 0 ]
								}

							}
, 							{
								"patchline" : 								{
									"destination" : [ "obj-2", 0 ],
									"source" : [ "obj-25", 0 ]
								}

							}
, 							{
								"patchline" : 								{
									"destination" : [ "obj-33", 0 ],
									"midpoints" : [ 209.5, 242.0, 210.5, 242.0 ],
									"order" : 1,
									"source" : [ "obj-3", 0 ]
								}

							}
, 							{
								"patchline" : 								{
									"destination" : [ "obj-79", 0 ],
									"midpoints" : [ 209.5, 248.0, 289.5, 248.0 ],
									"order" : 0,
									"source" : [ "obj-3", 0 ]
								}

							}
, 							{
								"patchline" : 								{
									"destination" : [ "obj-25", 0 ],
									"midpoints" : [ 238.5, 290.0, 210.5, 290.0 ],
									"order" : 1,
									"source" : [ "obj-33", 1 ]
								}

							}
, 							{
								"patchline" : 								{
									"destination" : [ "obj-25", 0 ],
									"midpoints" : [ 210.5, 278.0, 210.5, 278.0 ],
									"source" : [ "obj-33", 0 ]
								}

							}
, 							{
								"patchline" : 								{
									"destination" : [ "obj-7", 1 ],
									"order" : 0,
									"source" : [ "obj-33", 1 ]
								}

							}
, 							{
								"patchline" : 								{
									"destination" : [ "obj-3", 0 ],
									"midpoints" : [ 225.5, 197.0, 209.5, 197.0 ],
									"source" : [ "obj-5", 0 ]
								}

							}
, 							{
								"patchline" : 								{
									"destination" : [ "obj-3", 0 ],
									"midpoints" : [ 280.5, 158.0, 200.5, 158.0, 200.5, 212.0, 209.5, 212.0 ],
									"source" : [ "obj-6", 0 ]
								}

							}
, 							{
								"patchline" : 								{
									"destination" : [ "obj-5", 0 ],
									"midpoints" : [ 217.5, 158.0, 225.5, 158.0 ],
									"source" : [ "obj-8", 0 ]
								}

							}
, 							{
								"patchline" : 								{
									"destination" : [ "obj-9", 0 ],
									"midpoints" : [ 234.5, 158.0, 270.5, 158.0 ],
									"source" : [ "obj-8", 1 ]
								}

							}
, 							{
								"patchline" : 								{
									"destination" : [ "obj-3", 0 ],
									"midpoints" : [ 270.5, 197.0, 209.5, 197.0 ],
									"source" : [ "obj-9", 0 ]
								}

							}
 ]
					}
,
					"patching_rect" : [ 62.0, 109.0, 123.0, 22.0 ],
					"saved_object_attributes" : 					{
						"description" : "",
						"digest" : "",
						"globalpatchername" : "",
						"tags" : ""
					}
,
					"text" : "p take_in_serial_data"
				}

			}
, 			{
				"box" : 				{
					"id" : "obj-34",
					"maxclass" : "number",
					"numinlets" : 1,
					"numoutlets" : 2,
					"outlettype" : [ "", "bang" ],
					"parameter_enable" : 0,
					"patching_rect" : [ 65.0, 217.0, 50.0, 22.0 ]
				}

			}
, 			{
				"box" : 				{
					"id" : "obj-31",
					"maxclass" : "newobj",
					"numinlets" : 1,
					"numoutlets" : 1,
					"outlettype" : [ "float" ],
					"patcher" : 					{
						"fileversion" : 1,
						"appversion" : 						{
							"major" : 8,
							"minor" : 6,
							"revision" : 4,
							"architecture" : "x64",
							"modernui" : 1
						}
,
						"classnamespace" : "box",
						"rect" : [ 158.0, 168.0, 640.0, 480.0 ],
						"bglocked" : 0,
						"openinpresentation" : 0,
						"default_fontsize" : 12.0,
						"default_fontface" : 0,
						"default_fontname" : "Arial",
						"gridonopen" : 1,
						"gridsize" : [ 15.0, 15.0 ],
						"gridsnaponopen" : 1,
						"objectsnaponopen" : 1,
						"statusbarvisible" : 2,
						"toolbarvisible" : 1,
						"lefttoolbarpinned" : 0,
						"toptoolbarpinned" : 0,
						"righttoolbarpinned" : 0,
						"bottomtoolbarpinned" : 0,
						"toolbars_unpinned_last_save" : 0,
						"tallnewobj" : 0,
						"boxanimatetime" : 200,
						"enablehscroll" : 1,
						"enablevscroll" : 1,
						"devicewidth" : 0.0,
						"description" : "",
						"digest" : "",
						"tags" : "",
						"style" : "",
						"subpatcher_template" : "",
						"assistshowspatchername" : 0,
						"boxes" : [ 							{
								"box" : 								{
									"id" : "obj-5",
									"maxclass" : "newobj",
									"numinlets" : 2,
									"numoutlets" : 1,
									"outlettype" : [ "float" ],
									"patching_rect" : [ 257.0, 147.0, 52.0, 22.0 ],
									"text" : "/ 15.603"
								}

							}
, 							{
								"box" : 								{
									"id" : "obj-4",
									"maxclass" : "number",
									"numinlets" : 1,
									"numoutlets" : 2,
									"outlettype" : [ "", "bang" ],
									"parameter_enable" : 0,
									"patching_rect" : [ 258.0, 104.0, 50.0, 22.0 ]
								}

							}
, 							{
								"box" : 								{
									"comment" : "",
									"id" : "obj-2",
									"index" : 1,
									"maxclass" : "outlet",
									"numinlets" : 1,
									"numoutlets" : 0,
									"patching_rect" : [ 251.0, 196.0, 30.0, 30.0 ]
								}

							}
, 							{
								"box" : 								{
									"comment" : "",
									"id" : "obj-1",
									"index" : 1,
									"maxclass" : "inlet",
									"numinlets" : 0,
									"numoutlets" : 1,
									"outlettype" : [ "" ],
									"patching_rect" : [ 260.0, 49.0, 30.0, 30.0 ]
								}

							}
 ],
						"lines" : [ 							{
								"patchline" : 								{
									"destination" : [ "obj-4", 0 ],
									"source" : [ "obj-1", 0 ]
								}

							}
, 							{
								"patchline" : 								{
									"destination" : [ "obj-5", 0 ],
									"source" : [ "obj-4", 0 ]
								}

							}
, 							{
								"patchline" : 								{
									"destination" : [ "obj-2", 0 ],
									"source" : [ "obj-5", 0 ]
								}

							}
 ]
					}
,
					"patching_rect" : [ 191.0, 257.0, 100.0, 22.0 ],
					"saved_object_attributes" : 					{
						"description" : "",
						"digest" : "",
						"globalpatchername" : "",
						"tags" : ""
					}
,
					"text" : "p scale_pressure"
				}

			}
, 			{
				"box" : 				{
					"fontname" : "Didot",
					"fontsize" : 24.0,
					"id" : "obj-27",
					"maxclass" : "comment",
					"numinlets" : 1,
					"numoutlets" : 0,
					"patching_rect" : [ 991.0, 171.0, 189.0, 36.0 ],
					"text" : "Altitude (ft)",
					"textcolor" : [ 1.0, 1.0, 1.0, 1.0 ]
				}

			}
, 			{
				"box" : 				{
					"floatoutput" : 1,
					"id" : "obj-28",
					"knobcolor" : [ 1.0, 0.0, 0.0, 1.0 ],
					"maxclass" : "slider",
					"min" : -40.0,
					"numinlets" : 1,
					"numoutlets" : 1,
					"outlettype" : [ "" ],
					"parameter_enable" : 0,
					"patching_rect" : [ 857.0, 264.0, 277.0, 57.0 ],
					"size" : 8000.0
				}

			}
, 			{
				"box" : 				{
					"fontsize" : 24.0,
					"format" : 6,
					"id" : "obj-29",
					"maxclass" : "flonum",
					"numinlets" : 1,
					"numoutlets" : 2,
					"outlettype" : [ "", "bang" ],
					"parameter_enable" : 0,
					"patching_rect" : [ 857.0, 171.0, 86.0, 35.0 ]
				}

			}
, 			{
				"box" : 				{
					"fontname" : "Didot",
					"fontsize" : 24.0,
					"id" : "obj-22",
					"linecount" : 3,
					"maxclass" : "comment",
					"numinlets" : 1,
					"numoutlets" : 0,
					"patching_rect" : [ 991.0, 388.0, 201.0, 96.0 ],
					"text" : "Barometric\nPressure \n(hPa/mb)",
					"textcolor" : [ 1.0, 1.0, 1.0, 1.0 ],
					"textjustification" : 1
				}

			}
, 			{
				"box" : 				{
					"id" : "obj-23",
					"knobcolor" : [ 0.580392156862745, 0.23921568627451, 0.776470588235294, 1.0 ],
					"maxclass" : "slider",
					"min" : 400.0,
					"numinlets" : 1,
					"numoutlets" : 1,
					"outlettype" : [ "" ],
					"parameter_enable" : 0,
					"patching_rect" : [ 857.0, 493.0, 277.0, 57.0 ],
					"size" : 1050.0
				}

			}
, 			{
				"box" : 				{
					"fontsize" : 24.0,
					"format" : 6,
					"id" : "obj-24",
					"maxclass" : "flonum",
					"numinlets" : 1,
					"numoutlets" : 2,
					"outlettype" : [ "", "bang" ],
					"parameter_enable" : 0,
					"patching_rect" : [ 857.0, 400.0, 111.0, 35.0 ]
				}

			}
, 			{
				"box" : 				{
					"fontname" : "Didot",
					"fontsize" : 24.0,
					"id" : "obj-15",
					"maxclass" : "comment",
					"numinlets" : 1,
					"numoutlets" : 0,
					"patching_rect" : [ 609.0, 350.0, 189.0, 36.0 ],
					"text" : "Humidity (%)",
					"textcolor" : [ 1.0, 1.0, 1.0, 1.0 ]
				}

			}
, 			{
				"box" : 				{
					"floatoutput" : 1,
					"id" : "obj-16",
					"knobcolor" : [ 0.094117647058824, 0.76078431372549, 0.294117647058824, 1.0 ],
					"maxclass" : "slider",
					"numinlets" : 1,
					"numoutlets" : 1,
					"outlettype" : [ "" ],
					"parameter_enable" : 0,
					"patching_rect" : [ 475.0, 443.0, 277.0, 57.0 ],
					"size" : 100.0
				}

			}
, 			{
				"box" : 				{
					"fontsize" : 24.0,
					"format" : 6,
					"id" : "obj-18",
					"maxclass" : "flonum",
					"numinlets" : 1,
					"numoutlets" : 2,
					"outlettype" : [ "", "bang" ],
					"parameter_enable" : 0,
					"patching_rect" : [ 475.0, 350.0, 86.0, 35.0 ]
				}

			}
, 			{
				"box" : 				{
					"fontname" : "Didot",
					"fontsize" : 24.0,
					"id" : "obj-14",
					"maxclass" : "comment",
					"numinlets" : 1,
					"numoutlets" : 0,
					"patching_rect" : [ 220.0, 350.0, 189.0, 36.0 ],
					"text" : "Temperature (F)",
					"textcolor" : [ 1.0, 1.0, 1.0, 1.0 ]
				}

			}
, 			{
				"box" : 				{
					"floatoutput" : 1,
					"id" : "obj-4",
					"knobcolor" : [ 1.0, 0.898039215686275, 0.011764705882353, 1.0 ],
					"maxclass" : "slider",
					"min" : -10.0,
					"numinlets" : 1,
					"numoutlets" : 1,
					"outlettype" : [ "" ],
					"parameter_enable" : 0,
					"patching_rect" : [ 86.0, 443.0, 277.0, 57.0 ],
					"size" : 130.0
				}

			}
, 			{
				"box" : 				{
					"fontsize" : 24.0,
					"format" : 6,
					"id" : "obj-46",
					"maxclass" : "flonum",
					"numinlets" : 1,
					"numoutlets" : 2,
					"outlettype" : [ "", "bang" ],
					"parameter_enable" : 0,
					"patching_rect" : [ 86.0, 350.0, 86.0, 35.0 ]
				}

			}
, 			{
				"box" : 				{
					"id" : "obj-44",
					"maxclass" : "newobj",
					"numinlets" : 1,
					"numoutlets" : 1,
					"outlettype" : [ "float" ],
					"patcher" : 					{
						"fileversion" : 1,
						"appversion" : 						{
							"major" : 8,
							"minor" : 6,
							"revision" : 4,
							"architecture" : "x64",
							"modernui" : 1
						}
,
						"classnamespace" : "box",
						"rect" : [ 306.0, 168.0, 640.0, 480.0 ],
						"bglocked" : 0,
						"openinpresentation" : 0,
						"default_fontsize" : 12.0,
						"default_fontface" : 0,
						"default_fontname" : "Arial",
						"gridonopen" : 1,
						"gridsize" : [ 15.0, 15.0 ],
						"gridsnaponopen" : 1,
						"objectsnaponopen" : 1,
						"statusbarvisible" : 2,
						"toolbarvisible" : 1,
						"lefttoolbarpinned" : 0,
						"toptoolbarpinned" : 0,
						"righttoolbarpinned" : 0,
						"bottomtoolbarpinned" : 0,
						"toolbars_unpinned_last_save" : 0,
						"tallnewobj" : 0,
						"boxanimatetime" : 200,
						"enablehscroll" : 1,
						"enablevscroll" : 1,
						"devicewidth" : 0.0,
						"description" : "",
						"digest" : "",
						"tags" : "",
						"style" : "",
						"subpatcher_template" : "",
						"assistshowspatchername" : 0,
						"boxes" : [ 							{
								"box" : 								{
									"id" : "obj-43",
									"maxclass" : "newobj",
									"numinlets" : 2,
									"numoutlets" : 1,
									"outlettype" : [ "float" ],
									"patching_rect" : [ 178.0, 175.0, 39.0, 22.0 ],
									"text" : "- 100."
								}

							}
, 							{
								"box" : 								{
									"id" : "obj-40",
									"maxclass" : "newobj",
									"numinlets" : 2,
									"numoutlets" : 1,
									"outlettype" : [ "float" ],
									"patching_rect" : [ 178.0, 136.0, 52.0, 22.0 ],
									"text" : "/ 81.915"
								}

							}
, 							{
								"box" : 								{
									"fontname" : "Arial",
									"fontsize" : 12.0,
									"format" : 6,
									"id" : "obj-28",
									"maxclass" : "flonum",
									"numinlets" : 1,
									"numoutlets" : 2,
									"outlettype" : [ "", "bang" ],
									"parameter_enable" : 0,
									"patching_rect" : [ 168.0, 88.0, 63.0, 22.0 ]
								}

							}
, 							{
								"box" : 								{
									"comment" : "",
									"id" : "obj-2",
									"index" : 1,
									"maxclass" : "outlet",
									"numinlets" : 1,
									"numoutlets" : 0,
									"patching_rect" : [ 178.0, 233.0, 30.0, 30.0 ]
								}

							}
, 							{
								"box" : 								{
									"comment" : "",
									"id" : "obj-1",
									"index" : 1,
									"maxclass" : "inlet",
									"numinlets" : 0,
									"numoutlets" : 1,
									"outlettype" : [ "" ],
									"patching_rect" : [ 178.0, 19.0, 30.0, 30.0 ]
								}

							}
 ],
						"lines" : [ 							{
								"patchline" : 								{
									"destination" : [ "obj-28", 0 ],
									"source" : [ "obj-1", 0 ]
								}

							}
, 							{
								"patchline" : 								{
									"destination" : [ "obj-40", 0 ],
									"source" : [ "obj-28", 0 ]
								}

							}
, 							{
								"patchline" : 								{
									"destination" : [ "obj-43", 0 ],
									"source" : [ "obj-40", 0 ]
								}

							}
, 							{
								"patchline" : 								{
									"destination" : [ "obj-2", 0 ],
									"source" : [ "obj-43", 0 ]
								}

							}
 ]
					}
,
					"patching_rect" : [ 62.0, 257.0, 118.0, 22.0 ],
					"saved_object_attributes" : 					{
						"description" : "",
						"digest" : "",
						"globalpatchername" : "",
						"tags" : ""
					}
,
					"text" : "p scale_temperature"
				}

			}
, 			{
				"box" : 				{
					"id" : "obj-19",
					"maxclass" : "newobj",
					"numinlets" : 2,
					"numoutlets" : 1,
					"outlettype" : [ "int" ],
					"patching_rect" : [ 469.0, 175.0, 91.0, 22.0 ],
					"text" : "fourteenBitShift"
				}

			}
, 			{
				"box" : 				{
					"fontname" : "Arial",
					"fontsize" : 12.0,
					"id" : "obj-20",
					"maxclass" : "number",
					"numinlets" : 1,
					"numoutlets" : 2,
					"outlettype" : [ "", "bang" ],
					"parameter_enable" : 0,
					"patching_rect" : [ 474.0, 217.0, 50.0, 22.0 ]
				}

			}
, 			{
				"box" : 				{
					"id" : "obj-12",
					"maxclass" : "newobj",
					"numinlets" : 2,
					"numoutlets" : 1,
					"outlettype" : [ "int" ],
					"patching_rect" : [ 324.0, 175.0, 91.0, 22.0 ],
					"text" : "fourteenBitShift"
				}

			}
, 			{
				"box" : 				{
					"fontname" : "Arial",
					"fontsize" : 12.0,
					"id" : "obj-17",
					"maxclass" : "number",
					"numinlets" : 1,
					"numoutlets" : 2,
					"outlettype" : [ "", "bang" ],
					"parameter_enable" : 0,
					"patching_rect" : [ 324.0, 217.0, 50.0, 22.0 ]
				}

			}
, 			{
				"box" : 				{
					"id" : "obj-7",
					"maxclass" : "newobj",
					"numinlets" : 2,
					"numoutlets" : 1,
					"outlettype" : [ "int" ],
					"patching_rect" : [ 191.0, 175.0, 91.0, 22.0 ],
					"text" : "fourteenBitShift"
				}

			}
, 			{
				"box" : 				{
					"fontname" : "Arial",
					"fontsize" : 12.0,
					"id" : "obj-10",
					"maxclass" : "number",
					"numinlets" : 1,
					"numoutlets" : 2,
					"outlettype" : [ "", "bang" ],
					"parameter_enable" : 0,
					"patching_rect" : [ 191.0, 217.0, 50.0, 22.0 ]
				}

			}
, 			{
				"box" : 				{
					"id" : "obj-87",
					"maxclass" : "newobj",
					"numinlets" : 2,
					"numoutlets" : 1,
					"outlettype" : [ "int" ],
					"patching_rect" : [ 65.0, 175.0, 91.0, 22.0 ],
					"text" : "fourteenBitShift"
				}

			}
, 			{
				"box" : 				{
					"fontname" : "Arial",
					"fontsize" : 12.0,
					"id" : "obj-52",
					"maxclass" : "newobj",
					"numinlets" : 1,
					"numoutlets" : 8,
					"outlettype" : [ "int", "int", "int", "int", "int", "int", "int", "int" ],
					"patching_rect" : [ 62.0, 144.0, 127.0, 22.0 ],
					"text" : "unpack 0 0 0 0 0 0 0 0"
				}

			}
, 			{
				"box" : 				{
					"checkedcolor" : [ 1.0, 0.450980392156863, 0.705882352941177, 1.0 ],
					"id" : "obj-2",
					"maxclass" : "toggle",
					"numinlets" : 1,
					"numoutlets" : 1,
					"outlettype" : [ "int" ],
					"parameter_enable" : 0,
					"patching_rect" : [ 62.0, 39.0, 35.0, 35.0 ]
				}

			}
, 			{
				"box" : 				{
					"angle" : 270.0,
					"background" : 1,
					"bgcolor" : [ 0.580392156862745, 0.23921568627451, 0.776470588235294, 1.0 ],
					"bordercolor" : [ 0.580392156862745, 0.23921568627451, 0.776470588235294, 1.0 ],
					"id" : "obj-92",
					"maxclass" : "panel",
					"mode" : 0,
					"numinlets" : 1,
					"numoutlets" : 0,
					"patching_rect" : [ 583.5, 150.0, 237.5, 166.0 ],
					"proportion" : 0.5
				}

			}
, 			{
				"box" : 				{
					"angle" : 270.0,
					"background" : 1,
					"bgcolor" : [ 0.580392156862745, 0.23921568627451, 0.776470588235294, 1.0 ],
					"bordercolor" : [ 0.580392156862745, 0.23921568627451, 0.776470588235294, 1.0 ],
					"id" : "obj-64",
					"maxclass" : "panel",
					"mode" : 0,
					"numinlets" : 1,
					"numoutlets" : 0,
					"patching_rect" : [ 357.0, 1.0, 464.0, 155.0 ],
					"proportion" : 0.5
				}

			}
, 			{
				"box" : 				{
					"angle" : 270.0,
					"background" : 1,
					"bgcolor" : [ 0.094117647058824, 0.76078431372549, 0.294117647058824, 1.0 ],
					"bordercolor" : [ 0.094117647058824, 0.76078431372549, 0.294117647058824, 1.0 ],
					"id" : "obj-3",
					"maxclass" : "panel",
					"mode" : 0,
					"numinlets" : 1,
					"numoutlets" : 0,
					"patching_rect" : [ 63.0, 328.0, 356.0, 294.0 ],
					"proportion" : 0.5
				}

			}
, 			{
				"box" : 				{
					"angle" : 270.0,
					"background" : 1,
					"bgcolor" : [ 0.0, 0.729411764705882, 1.0, 1.0 ],
					"bordercolor" : [ 0.0, 0.729411764705882, 1.0, 1.0 ],
					"id" : "obj-21",
					"maxclass" : "panel",
					"mode" : 0,
					"numinlets" : 1,
					"numoutlets" : 0,
					"patching_rect" : [ 452.0, 328.0, 346.0, 294.0 ],
					"proportion" : 0.5
				}

			}
, 			{
				"box" : 				{
					"angle" : 270.0,
					"background" : 1,
					"bgcolor" : [ 1.0, 0.035294117647059, 0.556862745098039, 1.0 ],
					"bordercolor" : [ 1.0, 0.035294117647059, 0.556862745098039, 1.0 ],
					"id" : "obj-26",
					"maxclass" : "panel",
					"mode" : 0,
					"numinlets" : 1,
					"numoutlets" : 0,
					"patching_rect" : [ 834.0, 378.0, 346.0, 294.0 ],
					"proportion" : 0.5
				}

			}
, 			{
				"box" : 				{
					"angle" : 270.0,
					"background" : 1,
					"bgcolor" : [ 0.925490196078431, 0.533333333333333, 0.0, 1.0 ],
					"bordercolor" : [ 0.925490196078431, 0.533333333333333, 0.0, 1.0 ],
					"id" : "obj-30",
					"maxclass" : "panel",
					"mode" : 0,
					"numinlets" : 1,
					"numoutlets" : 0,
					"patching_rect" : [ 834.0, 26.0, 351.0, 328.5 ],
					"proportion" : 0.5
				}

			}
 ],
		"lines" : [ 			{
				"patchline" : 				{
					"destination" : [ "obj-45", 1 ],
					"midpoints" : [ 395.25, 720.0, 561.0, 720.0, 561.0, 636.0, 645.5, 636.0 ],
					"source" : [ "obj-1", 1 ]
				}

			}
, 			{
				"patchline" : 				{
					"destination" : [ "obj-45", 0 ],
					"midpoints" : [ 349.5, 720.0, 561.0, 720.0, 561.0, 636.0, 583.5, 636.0 ],
					"source" : [ "obj-1", 0 ]
				}

			}
, 			{
				"patchline" : 				{
					"destination" : [ "obj-31", 0 ],
					"midpoints" : [ 200.5, 240.0, 200.5, 240.0 ],
					"source" : [ "obj-10", 0 ]
				}

			}
, 			{
				"patchline" : 				{
					"destination" : [ "obj-25", 0 ],
					"midpoints" : [ 671.0, 198.0, 625.5, 198.0 ],
					"source" : [ "obj-103", 0 ]
				}

			}
, 			{
				"patchline" : 				{
					"destination" : [ "obj-17", 0 ],
					"midpoints" : [ 333.5, 198.0, 333.5, 198.0 ],
					"source" : [ "obj-12", 0 ]
				}

			}
, 			{
				"patchline" : 				{
					"destination" : [ "obj-57", 0 ],
					"midpoints" : [ 484.5, 513.0, 494.5, 513.0 ],
					"source" : [ "obj-16", 0 ]
				}

			}
, 			{
				"patchline" : 				{
					"destination" : [ "obj-36", 0 ],
					"midpoints" : [ 333.5, 252.0, 330.5, 252.0 ],
					"source" : [ "obj-17", 0 ]
				}

			}
, 			{
				"patchline" : 				{
					"destination" : [ "obj-16", 0 ],
					"midpoints" : [ 484.5, 387.0, 484.5, 387.0 ],
					"source" : [ "obj-18", 0 ]
				}

			}
, 			{
				"patchline" : 				{
					"destination" : [ "obj-20", 0 ],
					"midpoints" : [ 478.5, 210.0, 483.5, 210.0 ],
					"source" : [ "obj-19", 0 ]
				}

			}
, 			{
				"patchline" : 				{
					"destination" : [ "obj-35", 0 ],
					"midpoints" : [ 71.5, 75.0, 71.5, 75.0 ],
					"order" : 2,
					"source" : [ "obj-2", 0 ]
				}

			}
, 			{
				"patchline" : 				{
					"destination" : [ "obj-45", 0 ],
					"midpoints" : [ 71.5, 96.0, 48.0, 96.0, 48.0, 636.0, 583.5, 636.0 ],
					"order" : 0,
					"source" : [ "obj-2", 0 ]
				}

			}
, 			{
				"patchline" : 				{
					"destination" : [ "obj-5", 0 ],
					"midpoints" : [ 71.5, 75.0, 108.0, 75.0, 108.0, 15.0, 229.5, 15.0 ],
					"order" : 1,
					"source" : [ "obj-2", 0 ]
				}

			}
, 			{
				"patchline" : 				{
					"destination" : [ "obj-37", 0 ],
					"midpoints" : [ 483.5, 240.0, 478.5, 240.0 ],
					"source" : [ "obj-20", 0 ]
				}

			}
, 			{
				"patchline" : 				{
					"destination" : [ "obj-55", 0 ],
					"midpoints" : [ 866.5, 552.0, 882.5, 552.0 ],
					"source" : [ "obj-23", 0 ]
				}

			}
, 			{
				"patchline" : 				{
					"destination" : [ "obj-23", 0 ],
					"midpoints" : [ 866.5, 438.0, 866.5, 438.0 ],
					"source" : [ "obj-24", 0 ]
				}

			}
, 			{
				"patchline" : 				{
					"destination" : [ "obj-39", 1 ],
					"midpoints" : [ 677.0, 243.0, 742.5, 243.0 ],
					"source" : [ "obj-25", 1 ]
				}

			}
, 			{
				"patchline" : 				{
					"destination" : [ "obj-39", 0 ],
					"midpoints" : [ 625.5, 231.0, 625.5, 231.0 ],
					"source" : [ "obj-25", 0 ]
				}

			}
, 			{
				"patchline" : 				{
					"destination" : [ "obj-58", 0 ],
					"midpoints" : [ 866.5, 324.0, 843.0, 324.0, 843.0, 39.0, 866.5, 39.0 ],
					"source" : [ "obj-28", 0 ]
				}

			}
, 			{
				"patchline" : 				{
					"destination" : [ "obj-28", 0 ],
					"midpoints" : [ 866.5, 207.0, 866.5, 207.0 ],
					"source" : [ "obj-29", 0 ]
				}

			}
, 			{
				"patchline" : 				{
					"destination" : [ "obj-24", 0 ],
					"midpoints" : [ 200.5, 315.0, 579.0, 315.0, 579.0, 324.0, 810.0, 324.0, 810.0, 387.0, 866.5, 387.0 ],
					"source" : [ "obj-31", 0 ]
				}

			}
, 			{
				"patchline" : 				{
					"destination" : [ "obj-44", 0 ],
					"midpoints" : [ 74.5, 252.0, 71.5, 252.0 ],
					"source" : [ "obj-34", 0 ]
				}

			}
, 			{
				"patchline" : 				{
					"destination" : [ "obj-52", 0 ],
					"midpoints" : [ 71.5, 132.0, 71.5, 132.0 ],
					"source" : [ "obj-35", 0 ]
				}

			}
, 			{
				"patchline" : 				{
					"destination" : [ "obj-18", 0 ],
					"midpoints" : [ 330.5, 315.0, 484.5, 315.0 ],
					"source" : [ "obj-36", 0 ]
				}

			}
, 			{
				"patchline" : 				{
					"destination" : [ "obj-29", 0 ],
					"midpoints" : [ 478.5, 315.0, 579.0, 315.0, 579.0, 318.0, 843.0, 318.0, 843.0, 165.0, 866.5, 165.0 ],
					"source" : [ "obj-37", 0 ]
				}

			}
, 			{
				"patchline" : 				{
					"destination" : [ "obj-47", 1 ],
					"midpoints" : [ 181.5, 588.0, 243.0, 588.0, 243.0, 540.0, 374.5, 540.0 ],
					"order" : 0,
					"source" : [ "obj-38", 0 ]
				}

			}
, 			{
				"patchline" : 				{
					"destination" : [ "obj-47", 0 ],
					"midpoints" : [ 181.5, 588.0, 243.0, 588.0, 243.0, 549.0, 267.5, 549.0 ],
					"order" : 1,
					"source" : [ "obj-38", 0 ]
				}

			}
, 			{
				"patchline" : 				{
					"destination" : [ "obj-45", 1 ],
					"midpoints" : [ 654.75, 315.0, 810.0, 315.0, 810.0, 636.0, 645.5, 636.0 ],
					"source" : [ "obj-39", 1 ]
				}

			}
, 			{
				"patchline" : 				{
					"destination" : [ "obj-45", 0 ],
					"midpoints" : [ 625.5, 315.0, 438.0, 315.0, 438.0, 636.0, 583.5, 636.0 ],
					"source" : [ "obj-39", 0 ]
				}

			}
, 			{
				"patchline" : 				{
					"destination" : [ "obj-56", 0 ],
					"midpoints" : [ 95.5, 510.0, 100.5, 510.0 ],
					"source" : [ "obj-4", 0 ]
				}

			}
, 			{
				"patchline" : 				{
					"destination" : [ "obj-46", 0 ],
					"midpoints" : [ 71.5, 336.0, 95.5, 336.0 ],
					"source" : [ "obj-44", 0 ]
				}

			}
, 			{
				"patchline" : 				{
					"destination" : [ "obj-4", 0 ],
					"midpoints" : [ 95.5, 387.0, 95.5, 387.0 ],
					"source" : [ "obj-46", 0 ]
				}

			}
, 			{
				"patchline" : 				{
					"destination" : [ "obj-1", 1 ],
					"midpoints" : [ 294.25, 648.0, 532.5, 648.0 ],
					"source" : [ "obj-47", 1 ]
				}

			}
, 			{
				"patchline" : 				{
					"destination" : [ "obj-1", 0 ],
					"midpoints" : [ 267.5, 648.0, 349.5, 648.0 ],
					"source" : [ "obj-47", 0 ]
				}

			}
, 			{
				"patchline" : 				{
					"destination" : [ "obj-1", 1 ],
					"midpoints" : [ 662.25, 627.0, 532.5, 627.0 ],
					"source" : [ "obj-48", 1 ]
				}

			}
, 			{
				"patchline" : 				{
					"destination" : [ "obj-1", 0 ],
					"midpoints" : [ 635.5, 627.0, 429.0, 627.0, 429.0, 648.0, 349.5, 648.0 ],
					"source" : [ "obj-48", 0 ]
				}

			}
, 			{
				"patchline" : 				{
					"destination" : [ "obj-48", 1 ],
					"midpoints" : [ 534.5, 579.0, 612.0, 579.0, 612.0, 519.0, 742.5, 519.0 ],
					"order" : 0,
					"source" : [ "obj-49", 0 ]
				}

			}
, 			{
				"patchline" : 				{
					"destination" : [ "obj-48", 0 ],
					"midpoints" : [ 534.5, 579.0, 612.0, 579.0, 612.0, 528.0, 635.5, 528.0 ],
					"order" : 1,
					"source" : [ "obj-49", 0 ]
				}

			}
, 			{
				"patchline" : 				{
					"destination" : [ "obj-59", 0 ],
					"midpoints" : [ 282.5, 93.0, 366.0, 93.0, 366.0, 15.0, 389.5, 15.0 ],
					"order" : 0,
					"source" : [ "obj-5", 1 ]
				}

			}
, 			{
				"patchline" : 				{
					"destination" : [ "obj-68", 0 ],
					"midpoints" : [ 282.5, 93.0, 219.0, 93.0, 219.0, 105.0, 218.5, 105.0 ],
					"order" : 1,
					"source" : [ "obj-5", 1 ]
				}

			}
, 			{
				"patchline" : 				{
					"destination" : [ "obj-1", 1 ],
					"midpoints" : [ 1064.75, 666.0, 666.0, 666.0, 666.0, 639.0, 532.5, 639.0 ],
					"source" : [ "obj-50", 1 ]
				}

			}
, 			{
				"patchline" : 				{
					"destination" : [ "obj-1", 0 ],
					"midpoints" : [ 1038.0, 657.0, 666.0, 657.0, 666.0, 639.0, 349.5, 639.0 ],
					"source" : [ "obj-50", 0 ]
				}

			}
, 			{
				"patchline" : 				{
					"destination" : [ "obj-50", 1 ],
					"midpoints" : [ 961.0, 642.0, 1014.0, 642.0, 1014.0, 594.0, 1145.0, 594.0 ],
					"order" : 0,
					"source" : [ "obj-51", 0 ]
				}

			}
, 			{
				"patchline" : 				{
					"destination" : [ "obj-50", 0 ],
					"midpoints" : [ 961.0, 642.0, 1014.0, 642.0, 1014.0, 603.0, 1038.0, 603.0 ],
					"order" : 1,
					"source" : [ "obj-51", 0 ]
				}

			}
, 			{
				"patchline" : 				{
					"destination" : [ "obj-12", 1 ],
					"midpoints" : [ 148.642857142857139, 168.0, 405.5, 168.0 ],
					"source" : [ "obj-52", 5 ]
				}

			}
, 			{
				"patchline" : 				{
					"destination" : [ "obj-12", 0 ],
					"midpoints" : [ 133.214285714285722, 168.0, 333.5, 168.0 ],
					"source" : [ "obj-52", 4 ]
				}

			}
, 			{
				"patchline" : 				{
					"destination" : [ "obj-19", 1 ],
					"midpoints" : [ 179.5, 168.0, 550.5, 168.0 ],
					"source" : [ "obj-52", 7 ]
				}

			}
, 			{
				"patchline" : 				{
					"destination" : [ "obj-19", 0 ],
					"midpoints" : [ 164.071428571428555, 168.0, 478.5, 168.0 ],
					"source" : [ "obj-52", 6 ]
				}

			}
, 			{
				"patchline" : 				{
					"destination" : [ "obj-7", 1 ],
					"midpoints" : [ 117.785714285714278, 168.0, 272.5, 168.0 ],
					"source" : [ "obj-52", 3 ]
				}

			}
, 			{
				"patchline" : 				{
					"destination" : [ "obj-7", 0 ],
					"midpoints" : [ 102.357142857142861, 168.0, 200.5, 168.0 ],
					"source" : [ "obj-52", 2 ]
				}

			}
, 			{
				"patchline" : 				{
					"destination" : [ "obj-87", 1 ],
					"midpoints" : [ 86.928571428571431, 168.0, 146.5, 168.0 ],
					"source" : [ "obj-52", 1 ]
				}

			}
, 			{
				"patchline" : 				{
					"destination" : [ "obj-87", 0 ],
					"midpoints" : [ 71.5, 171.0, 74.5, 171.0 ],
					"source" : [ "obj-52", 0 ]
				}

			}
, 			{
				"patchline" : 				{
					"destination" : [ "obj-1", 1 ],
					"midpoints" : [ 1008.25, 156.0, 831.0, 156.0, 831.0, 363.0, 810.0, 363.0, 810.0, 639.0, 532.5, 639.0 ],
					"source" : [ "obj-53", 1 ]
				}

			}
, 			{
				"patchline" : 				{
					"destination" : [ "obj-1", 0 ],
					"midpoints" : [ 981.5, 156.0, 831.0, 156.0, 831.0, 363.0, 810.0, 363.0, 810.0, 639.0, 349.5, 639.0 ],
					"source" : [ "obj-53", 0 ]
				}

			}
, 			{
				"patchline" : 				{
					"destination" : [ "obj-53", 1 ],
					"midpoints" : [ 895.5, 141.0, 1110.0, 141.0, 1110.0, 78.0, 1088.5, 78.0 ],
					"order" : 0,
					"source" : [ "obj-54", 0 ]
				}

			}
, 			{
				"patchline" : 				{
					"destination" : [ "obj-53", 0 ],
					"midpoints" : [ 895.5, 117.0, 957.0, 117.0, 957.0, 78.0, 981.5, 78.0 ],
					"order" : 1,
					"source" : [ "obj-54", 0 ]
				}

			}
, 			{
				"patchline" : 				{
					"destination" : [ "obj-8", 0 ],
					"midpoints" : [ 882.5, 585.0, 916.5, 585.0 ],
					"source" : [ "obj-55", 0 ]
				}

			}
, 			{
				"patchline" : 				{
					"destination" : [ "obj-38", 0 ],
					"midpoints" : [ 100.5, 549.0, 181.5, 549.0 ],
					"order" : 0,
					"source" : [ "obj-56", 0 ]
				}

			}
, 			{
				"patchline" : 				{
					"destination" : [ "obj-9", 0 ],
					"midpoints" : [ 100.5, 549.0, 108.5, 549.0 ],
					"order" : 1,
					"source" : [ "obj-56", 0 ]
				}

			}
, 			{
				"patchline" : 				{
					"destination" : [ "obj-13", 0 ],
					"midpoints" : [ 494.5, 543.0, 464.5, 543.0 ],
					"order" : 1,
					"source" : [ "obj-57", 0 ]
				}

			}
, 			{
				"patchline" : 				{
					"destination" : [ "obj-49", 0 ],
					"midpoints" : [ 494.5, 543.0, 534.5, 543.0 ],
					"order" : 0,
					"source" : [ "obj-57", 0 ]
				}

			}
, 			{
				"patchline" : 				{
					"destination" : [ "obj-54", 0 ],
					"midpoints" : [ 866.5, 78.0, 895.5, 78.0 ],
					"order" : 1,
					"source" : [ "obj-58", 0 ]
				}

			}
, 			{
				"patchline" : 				{
					"destination" : [ "obj-6", 0 ],
					"midpoints" : [ 866.5, 69.0, 843.0, 69.0, 843.0, 30.0, 1065.5, 30.0 ],
					"order" : 0,
					"source" : [ "obj-58", 0 ]
				}

			}
, 			{
				"patchline" : 				{
					"destination" : [ "obj-60", 0 ],
					"midpoints" : [ 389.5, 45.0, 389.5, 45.0 ],
					"source" : [ "obj-59", 0 ]
				}

			}
, 			{
				"patchline" : 				{
					"destination" : [ "obj-63", 0 ],
					"midpoints" : [ 408.5, 45.0, 366.0, 45.0, 366.0, 108.0, 389.5, 108.0 ],
					"source" : [ "obj-59", 1 ]
				}

			}
, 			{
				"patchline" : 				{
					"destination" : [ "obj-75", 0 ],
					"midpoints" : [ 446.5, 54.0, 612.0, 54.0, 612.0, 39.0, 635.5, 39.0 ],
					"source" : [ "obj-59", 3 ]
				}

			}
, 			{
				"patchline" : 				{
					"destination" : [ "obj-76", 0 ],
					"midpoints" : [ 427.5, 54.0, 612.0, 54.0, 612.0, 9.0, 635.5, 9.0 ],
					"source" : [ "obj-59", 2 ]
				}

			}
, 			{
				"patchline" : 				{
					"destination" : [ "obj-79", 0 ],
					"midpoints" : [ 522.5, 84.0, 612.0, 84.0, 612.0, 108.0, 635.5, 108.0 ],
					"source" : [ "obj-59", 7 ]
				}

			}
, 			{
				"patchline" : 				{
					"destination" : [ "obj-80", 0 ],
					"midpoints" : [ 503.5, 78.0, 635.5, 78.0 ],
					"source" : [ "obj-59", 6 ]
				}

			}
, 			{
				"patchline" : 				{
					"destination" : [ "obj-83", 0 ],
					"midpoints" : [ 560.5, 75.0, 726.0, 75.0, 726.0, 108.0, 738.5, 108.0 ],
					"source" : [ "obj-59", 9 ]
				}

			}
, 			{
				"patchline" : 				{
					"destination" : [ "obj-84", 0 ],
					"midpoints" : [ 541.5, 75.0, 738.5, 75.0 ],
					"source" : [ "obj-59", 8 ]
				}

			}
, 			{
				"patchline" : 				{
					"destination" : [ "obj-88", 0 ],
					"midpoints" : [ 484.5, 54.0, 612.0, 54.0, 612.0, 39.0, 738.5, 39.0 ],
					"source" : [ "obj-59", 5 ]
				}

			}
, 			{
				"patchline" : 				{
					"destination" : [ "obj-89", 0 ],
					"midpoints" : [ 465.5, 54.0, 612.0, 54.0, 612.0, 0.0, 738.5, 0.0 ],
					"source" : [ "obj-59", 4 ]
				}

			}
, 			{
				"patchline" : 				{
					"destination" : [ "obj-62", 0 ],
					"midpoints" : [ 389.5, 72.0, 389.5, 72.0 ],
					"source" : [ "obj-60", 0 ]
				}

			}
, 			{
				"patchline" : 				{
					"destination" : [ "obj-1", 1 ],
					"midpoints" : [ 218.5, 168.0, 306.0, 168.0, 306.0, 315.0, 438.0, 315.0, 438.0, 648.0, 532.5, 648.0 ],
					"order" : 0,
					"source" : [ "obj-68", 0 ]
				}

			}
, 			{
				"patchline" : 				{
					"destination" : [ "obj-1", 0 ],
					"midpoints" : [ 218.5, 168.0, 306.0, 168.0, 306.0, 315.0, 429.0, 315.0, 429.0, 648.0, 349.5, 648.0 ],
					"order" : 1,
					"source" : [ "obj-68", 0 ]
				}

			}
, 			{
				"patchline" : 				{
					"destination" : [ "obj-10", 0 ],
					"midpoints" : [ 200.5, 198.0, 200.5, 198.0 ],
					"source" : [ "obj-7", 0 ]
				}

			}
, 			{
				"patchline" : 				{
					"destination" : [ "obj-32", 0 ],
					"midpoints" : [ 916.5, 615.0, 894.0, 615.0, 894.0, 594.0, 853.5, 594.0 ],
					"order" : 1,
					"source" : [ "obj-8", 0 ]
				}

			}
, 			{
				"patchline" : 				{
					"destination" : [ "obj-51", 0 ],
					"midpoints" : [ 916.5, 615.0, 948.0, 615.0, 948.0, 603.0, 961.0, 603.0 ],
					"order" : 0,
					"source" : [ "obj-8", 0 ]
				}

			}
, 			{
				"patchline" : 				{
					"destination" : [ "obj-34", 0 ],
					"midpoints" : [ 74.5, 198.0, 74.5, 198.0 ],
					"source" : [ "obj-87", 0 ]
				}

			}
, 			{
				"patchline" : 				{
					"destination" : [ "obj-25", 0 ],
					"midpoints" : [ 625.5, 198.0, 625.5, 198.0 ],
					"source" : [ "obj-98", 0 ]
				}

			}
 ],
		"parameters" : 		{
			"obj-1" : [ "live.gain~[4]", "live.gain~[4]", 0 ],
			"obj-39" : [ "live.gain~[6]", "live.gain~[6]", 0 ],
			"obj-47" : [ "live.gain~", "live.gain~", 0 ],
			"obj-48" : [ "live.gain~[1]", "live.gain~", 0 ],
			"obj-50" : [ "live.gain~[2]", "live.gain~", 0 ],
			"obj-53" : [ "live.gain~[3]", "live.gain~", 0 ],
			"obj-68" : [ "live.gain~[5]", "live.gain~[5]", 0 ],
			"parameterbanks" : 			{
				"0" : 				{
					"index" : 0,
					"name" : "",
					"parameters" : [ "-", "-", "-", "-", "-", "-", "-", "-" ]
				}

			}
,
			"inherited_shortname" : 1
		}
,
		"dependency_cache" : [ 			{
				"name" : "fourteenBitShift.maxpat",
				"bootpath" : "~/Documents/Arduino/weather",
				"patcherrelativepath" : ".",
				"type" : "JSON",
				"implicit" : 1
			}
, 			{
				"name" : "sigmund~.mxo",
				"type" : "iLaX"
			}
 ],
		"autosave" : 0
	}

}
